<svg>
    <symbol id="envelope" viewBox="0 0 16 16" xmlns="http://www.w3.org/2000/svg">
        <g clip-path="url(#clip0_1_174)">
            <path d="M1.99998 2H14C14.1768 2 14.3464 2.07024 14.4714 2.19526C14.5964 2.32029 14.6666 2.48986 14.6666 2.66667V13.3333C14.6666 13.5101 14.5964 13.6797 14.4714 13.8047C14.3464 13.9298 14.1768 14 14 14H1.99998C1.82317 14 1.6536 13.9298 1.52858 13.8047C1.40355 13.6797 1.33331 13.5101 1.33331 13.3333V2.66667C1.33331 2.48986 1.40355 2.32029 1.52858 2.19526C1.6536 2.07024 1.82317 2 1.99998 2ZM8.03998 7.78867L3.76531 4.15867L2.90198 5.17467L8.04865 9.54467L13.1026 5.17133L12.2306 4.16267L8.04065 7.78867H8.03998Z"/>
        </g>
        <defs>
            <clipPath id="clip0_1_174">
                <rect width="16" height="16" fill="white"/>
            </clipPath>
        </defs>
    </symbol>

    <symbol id="arrow-right" viewBox="0 0 12 12" xmlns="http://www.w3.org/2000/svg">
        <path d="M0.770095 6.79025H9.37205L5.61399 10.6467C5.31365 10.9549 5.31365 11.4607 5.61399 11.7689C5.91433 12.077 6.39949 12.077 6.69982 11.7689L11.7747 6.56108C12.0751 6.25288 12.0751 5.75502 11.7747 5.44682L6.70752 0.231149C6.40719 -0.0770497 5.92203 -0.0770497 5.62169 0.231149C5.32135 0.539348 5.32135 1.03721 5.62169 1.34541L9.37205 5.20975H0.770095C0.346543 5.20975 0 5.56536 0 6C0 6.43464 0.346543 6.79025 0.770095 6.79025Z" />
    </symbol>

    <symbol id="right" viewBox="0 0 24 24" fill="none" xmlns="http://www.w3.org/2000/svg">
        <circle cx="12" cy="12" r="12" fill="#54BA4A"/>
        <path d="M6 13.0712L7.51436 11.9706C7.51436 11.9706 9.91847 14.5546 9.90669 14.7281C9.90669 14.7281 14.0078 8.2621 18.6923 7V7.28113C18.6923 7.28113 11.586 11.5699 10.0599 18L6 13.0712Z" fill="white" stroke="white"/>
    </symbol>

</svg>