<svg>
    <symbol id="envelope" viewBox="0 0 16 16" xmlns="http://www.w3.org/2000/svg">
        <g clip-path="url(#clip0_1_174)">
            <path d="M1.99998 2H14C14.1768 2 14.3464 2.07024 14.4714 2.19526C14.5964 2.32029 14.6666 2.48986 14.6666 2.66667V13.3333C14.6666 13.5101 14.5964 13.6797 14.4714 13.8047C14.3464 13.9298 14.1768 14 14 14H1.99998C1.82317 14 1.6536 13.9298 1.52858 13.8047C1.40355 13.6797 1.33331 13.5101 1.33331 13.3333V2.66667C1.33331 2.48986 1.40355 2.32029 1.52858 2.19526C1.6536 2.07024 1.82317 2 1.99998 2ZM8.03998 7.78867L3.76531 4.15867L2.90198 5.17467L8.04865 9.54467L13.1026 5.17133L12.2306 4.16267L8.04065 7.78867H8.03998Z"/>
        </g>
        <defs>
            <clipPath id="clip0_1_174">
                <rect width="16" height="16" fill="white"/>
            </clipPath>
        </defs>
    </symbol>

    <symbol id="arrow-right" viewBox="0 0 12 12" xmlns="http://www.w3.org/2000/svg">
        <path d="M0.770095 6.79025H9.37205L5.61399 10.6467C5.31365 10.9549 5.31365 11.4607 5.61399 11.7689C5.91433 12.077 6.39949 12.077 6.69982 11.7689L11.7747 6.56108C12.0751 6.25288 12.0751 5.75502 11.7747 5.44682L6.70752 0.231149C6.40719 -0.0770497 5.92203 -0.0770497 5.62169 0.231149C5.32135 0.539348 5.32135 1.03721 5.62169 1.34541L9.37205 5.20975H0.770095C0.346543 5.20975 0 5.56536 0 6C0 6.43464 0.346543 6.79025 0.770095 6.79025Z" />
    </symbol>

    <symbol id="right" viewBox="0 0 24 24" fill="none" xmlns="http://www.w3.org/2000/svg">
        <circle cx="12" cy="12" r="12" fill="#54BA4A"/>
        <path d="M6 13.0712L7.51436 11.9706C7.51436 11.9706 9.91847 14.5546 9.90669 14.7281C9.90669 14.7281 14.0078 8.2621 18.6923 7V7.28113C18.6923 7.28113 11.586 11.5699 10.0599 18L6 13.0712Z" fill="white" stroke="white"/>
    </symbol>

    <symbol id="interface" viewBox="0 0 18 18" fill="none" xmlns="http://www.w3.org/2000/svg">
        <path d="M16.418 9.52734C15.8914 9.52734 15.4274 9.78854 15.1397 10.1853L11.6201 9.16438C11.6235 9.10904 11.6367 9.0563 11.6367 9C11.6367 8.46346 11.4738 7.96509 11.1974 7.54829L14.8258 3.91992C15.1394 4.10518 15.5006 4.21875 15.8906 4.21875C17.0539 4.21875 18 3.27269 18 2.10938C18 0.94606 17.0539 0 15.8906 0C14.7273 0 13.7812 0.94606 13.7812 2.10938C13.7812 2.49939 13.8948 2.86057 14.0801 3.17422L10.4517 6.8026C10.0349 6.52615 9.53654 6.36328 9 6.36328C8.46346 6.36328 7.96509 6.52615 7.54829 6.8026L4.09529 3.34959C4.19403 3.14333 4.25391 2.91536 4.25391 2.67188C4.25391 1.79956 3.54419 1.08984 2.67188 1.08984C1.79956 1.08984 1.08984 1.79956 1.08984 2.67188C1.08984 3.54419 1.79956 4.25391 2.67188 4.25391C2.91536 4.25391 3.14333 4.19403 3.34959 4.09529L6.8026 7.54829C6.52615 7.96509 6.36328 8.46346 6.36328 9C6.36328 9.18265 6.38223 9.3609 6.4178 9.53311L2.73999 11.0943C2.45078 10.7814 2.04071 10.582 1.58203 10.582C0.709717 10.582 0 11.2917 0 12.1641C0 13.0364 0.709717 13.7461 1.58203 13.7461C2.45435 13.7461 3.16406 13.0364 3.16406 12.1641C3.16406 12.1297 3.1561 12.0977 3.15404 12.0639L6.83693 10.5006C7.3136 11.1855 8.10406 11.6367 9 11.6367C9.00851 11.6367 9.01648 11.6342 9.02499 11.6342L9.53929 14.0681C8.90538 14.4323 8.47266 15.1084 8.47266 15.8906C8.47266 17.0539 9.41872 18 10.582 18C11.7453 18 12.6914 17.0539 12.6914 15.8906C12.6914 14.7273 11.7453 13.7812 10.582 13.7812C10.5734 13.7812 10.5654 13.7837 10.5568 13.7839L10.0559 11.4125C10.6165 11.166 11.0678 10.7268 11.3437 10.1828L14.8449 11.1982C14.892 12.0287 15.576 12.6914 16.418 12.6914C17.2903 12.6914 18 11.9817 18 11.1094C18 10.2371 17.2903 9.52734 16.418 9.52734Z" fill="#7366FF"/>
    </symbol>

    <symbol id="lock" viewBox="0 0 13 18" fill="none" xmlns="http://www.w3.org/2000/svg">
        <path d="M1.22471 7.34851H3.25486V5.15779C3.25486 3.43317 4.71067 2.03015 6.50006 2.03015C8.28944 2.03015 9.74525 3.43324 9.74525 5.15779V7.34851H11.7754V5.15779C11.7754 2.31374 9.40888 0 6.50006 0C3.59123 0 1.22471 2.3138 1.22471 5.15779V7.34851Z" fill="#7366FF"/>
        <path d="M1.26884 17.4484H11.7312C12.4319 17.4484 13 16.8803 13 16.1795V7.82146C13 7.12067 12.4319 6.55261 11.7312 6.55261H1.26884C0.568061 6.55261 0 7.12067 0 7.82146V16.1795C0 16.8803 0.568061 17.4484 1.26884 17.4484Z" fill="#7366FF"/>
        <path d="M5.13556 11.0758C5.13556 10.3237 5.74638 9.71387 6.49988 9.71387C7.25339 9.71387 7.86421 10.3236 7.86421 11.0758C7.86421 11.521 7.64933 11.9151 7.31848 12.1636V14.1987H5.68123V12.1636C5.3505 11.9151 5.13556 11.521 5.13556 11.0758Z" fill="white"/>
    </symbol>



</svg>