<svg>
    <symbol id="envelope" viewBox="0 0 16 16" xmlns="http://www.w3.org/2000/svg">
        <g clip-path="url(#clip0_1_174)">
            <path d="M1.99998 2H14C14.1768 2 14.3464 2.07024 14.4714 2.19526C14.5964 2.32029 14.6666 2.48986 14.6666 2.66667V13.3333C14.6666 13.5101 14.5964 13.6797 14.4714 13.8047C14.3464 13.9298 14.1768 14 14 14H1.99998C1.82317 14 1.6536 13.9298 1.52858 13.8047C1.40355 13.6797 1.33331 13.5101 1.33331 13.3333V2.66667C1.33331 2.48986 1.40355 2.32029 1.52858 2.19526C1.6536 2.07024 1.82317 2 1.99998 2ZM8.03998 7.78867L3.76531 4.15867L2.90198 5.17467L8.04865 9.54467L13.1026 5.17133L12.2306 4.16267L8.04065 7.78867H8.03998Z"/>
        </g>
        <defs>
            <clipPath id="clip0_1_174">
                <rect width="16" height="16" fill="white"/>
            </clipPath>
        </defs>
    </symbol>

    <symbol id="arrow-right" viewBox="0 0 12 12" xmlns="http://www.w3.org/2000/svg">
        <path d="M0.770095 6.79025H9.37205L5.61399 10.6467C5.31365 10.9549 5.31365 11.4607 5.61399 11.7689C5.91433 12.077 6.39949 12.077 6.69982 11.7689L11.7747 6.56108C12.0751 6.25288 12.0751 5.75502 11.7747 5.44682L6.70752 0.231149C6.40719 -0.0770497 5.92203 -0.0770497 5.62169 0.231149C5.32135 0.539348 5.32135 1.03721 5.62169 1.34541L9.37205 5.20975H0.770095C0.346543 5.20975 0 5.56536 0 6C0 6.43464 0.346543 6.79025 0.770095 6.79025Z" />
    </symbol>


    <symbol id="arrow-right-1" width="17" height="10" viewBox="0 0 17 10" fill="none" xmlns="http://www.w3.org/2000/svg">
        <path d="M16.6888 5.57828L12.9243 9.34279C12.7168 9.55027 12.4449 9.654 12.173 9.654C11.9011 9.654 11.6292 9.55027 11.4217 9.34279C11.0068 8.92785 11.0068 8.25512 11.4217 7.84018L13.3724 5.8895H1.0625C0.475701 5.8895 0 5.41379 0 4.827C0 4.2402 0.475701 3.7645 1.0625 3.7645H13.3724L11.4217 1.81381C11.0068 1.39887 11.0068 0.726144 11.4217 0.311205C11.8366 -0.103735 12.5093 -0.103735 12.9243 0.311205L16.6888 4.07571C17.1037 4.49061 17.1037 5.16338 16.6888 5.57828Z" fill="white"/>
    </symbol>

    <symbol id="right" viewBox="0 0 24 24" fill="none" xmlns="http://www.w3.org/2000/svg">
        <circle cx="12" cy="12" r="12" fill="#54BA4A"/>
        <path d="M6 13.0712L7.51436 11.9706C7.51436 11.9706 9.91847 14.5546 9.90669 14.7281C9.90669 14.7281 14.0078 8.2621 18.6923 7V7.28113C18.6923 7.28113 11.586 11.5699 10.0599 18L6 13.0712Z" fill="white" stroke="white"/>
    </symbol>

    <symbol id="interface" viewBox="0 0 18 18" fill="none" xmlns="http://www.w3.org/2000/svg">
        <path d="M16.418 9.52734C15.8914 9.52734 15.4274 9.78854 15.1397 10.1853L11.6201 9.16438C11.6235 9.10904 11.6367 9.0563 11.6367 9C11.6367 8.46346 11.4738 7.96509 11.1974 7.54829L14.8258 3.91992C15.1394 4.10518 15.5006 4.21875 15.8906 4.21875C17.0539 4.21875 18 3.27269 18 2.10938C18 0.94606 17.0539 0 15.8906 0C14.7273 0 13.7812 0.94606 13.7812 2.10938C13.7812 2.49939 13.8948 2.86057 14.0801 3.17422L10.4517 6.8026C10.0349 6.52615 9.53654 6.36328 9 6.36328C8.46346 6.36328 7.96509 6.52615 7.54829 6.8026L4.09529 3.34959C4.19403 3.14333 4.25391 2.91536 4.25391 2.67188C4.25391 1.79956 3.54419 1.08984 2.67188 1.08984C1.79956 1.08984 1.08984 1.79956 1.08984 2.67188C1.08984 3.54419 1.79956 4.25391 2.67188 4.25391C2.91536 4.25391 3.14333 4.19403 3.34959 4.09529L6.8026 7.54829C6.52615 7.96509 6.36328 8.46346 6.36328 9C6.36328 9.18265 6.38223 9.3609 6.4178 9.53311L2.73999 11.0943C2.45078 10.7814 2.04071 10.582 1.58203 10.582C0.709717 10.582 0 11.2917 0 12.1641C0 13.0364 0.709717 13.7461 1.58203 13.7461C2.45435 13.7461 3.16406 13.0364 3.16406 12.1641C3.16406 12.1297 3.1561 12.0977 3.15404 12.0639L6.83693 10.5006C7.3136 11.1855 8.10406 11.6367 9 11.6367C9.00851 11.6367 9.01648 11.6342 9.02499 11.6342L9.53929 14.0681C8.90538 14.4323 8.47266 15.1084 8.47266 15.8906C8.47266 17.0539 9.41872 18 10.582 18C11.7453 18 12.6914 17.0539 12.6914 15.8906C12.6914 14.7273 11.7453 13.7812 10.582 13.7812C10.5734 13.7812 10.5654 13.7837 10.5568 13.7839L10.0559 11.4125C10.6165 11.166 11.0678 10.7268 11.3437 10.1828L14.8449 11.1982C14.892 12.0287 15.576 12.6914 16.418 12.6914C17.2903 12.6914 18 11.9817 18 11.1094C18 10.2371 17.2903 9.52734 16.418 9.52734Z" fill="#7366FF"/>
    </symbol>

    <symbol id="lock" viewBox="0 0 13 18" fill="none" xmlns="http://www.w3.org/2000/svg">
        <path d="M1.22471 7.34851H3.25486V5.15779C3.25486 3.43317 4.71067 2.03015 6.50006 2.03015C8.28944 2.03015 9.74525 3.43324 9.74525 5.15779V7.34851H11.7754V5.15779C11.7754 2.31374 9.40888 0 6.50006 0C3.59123 0 1.22471 2.3138 1.22471 5.15779V7.34851Z" fill="#7366FF"/>
        <path d="M1.26884 17.4484H11.7312C12.4319 17.4484 13 16.8803 13 16.1795V7.82146C13 7.12067 12.4319 6.55261 11.7312 6.55261H1.26884C0.568061 6.55261 0 7.12067 0 7.82146V16.1795C0 16.8803 0.568061 17.4484 1.26884 17.4484Z" fill="#7366FF"/>
        <path d="M5.13556 11.0758C5.13556 10.3237 5.74638 9.71387 6.49988 9.71387C7.25339 9.71387 7.86421 10.3236 7.86421 11.0758C7.86421 11.521 7.64933 11.9151 7.31848 12.1636V14.1987H5.68123V12.1636C5.3505 11.9151 5.13556 11.521 5.13556 11.0758Z" fill="white"/>
    </symbol>

    <symbol id="map-pin" viewBox="0 0 15 21" xmlns="http://www.w3.org/2000/svg">
        <path d="M7.17969 0.288818C3.22081 0.288818 0 3.50963 0 7.46851C0 8.80608 0.370512 10.1114 1.07173 11.2439L6.771 20.4282C6.88017 20.6041 7.07251 20.711 7.27937 20.711C7.28096 20.711 7.28252 20.711 7.28411 20.711C7.49276 20.7094 7.6855 20.5992 7.79267 20.4202L13.3467 11.1469C14.0092 10.0384 14.3594 8.76639 14.3594 7.46851C14.3594 3.50963 11.1386 0.288818 7.17969 0.288818ZM12.3198 10.5326L7.27031 18.9634L2.08877 10.6134C1.5051 9.67084 1.18864 8.58335 1.18864 7.46851C1.18864 4.16944 3.88062 1.47746 7.17969 1.47746C10.4788 1.47746 13.1667 4.16944 13.1667 7.46851C13.1667 8.55029 12.8711 9.60997 12.3198 10.5326Z" />
        <path d="M7.17969 3.87866C5.20025 3.87866 3.58984 5.48907 3.58984 7.46851C3.58984 9.4353 5.17404 11.0583 7.17969 11.0583C9.21006 11.0583 10.7695 9.41368 10.7695 7.46851C10.7695 5.48907 9.15913 3.87866 7.17969 3.87866ZM7.17969 9.86971C5.85316 9.86971 4.77848 8.79144 4.77848 7.46851C4.77848 6.14888 5.86006 5.0673 7.17969 5.0673C8.49931 5.0673 9.57691 6.14888 9.57691 7.46851C9.57691 8.77214 8.52724 9.86971 7.17969 9.86971Z" />
    </symbol>

    <symbol id="inbox" viewBox="0 0 19 14" xmlns="http://www.w3.org/2000/svg">
        <path d="M17.3301 0.000488281H1.66992C0.747271 0.000488281 0 0.752398 0 1.67041V11.6899C0 12.6134 0.752764 13.3599 1.66992 13.3599H17.3301C18.245 13.3599 19 12.6166 19 11.6899V1.67041C19 0.754031 18.2557 0.000488281 17.3301 0.000488281ZM17.0962 1.11377C16.755 1.45313 10.8835 7.29371 10.6808 7.49536C10.3654 7.81079 9.94605 7.98446 9.5 7.98446C9.05395 7.98446 8.63461 7.81075 8.31814 7.49432C8.1818 7.35868 2.37511 1.58261 1.90379 1.11377H17.0962ZM1.11328 11.4634V1.89771L5.92407 6.68314L1.11328 11.4634ZM1.90449 12.2466L6.71338 7.46827L7.53198 8.28256C8.05767 8.80825 8.75659 9.09774 9.5 9.09774C10.2434 9.09774 10.9423 8.80825 11.467 8.2836L12.2866 7.46827L17.0955 12.2466H1.90449ZM17.8867 11.4634L13.0759 6.68314L17.8867 1.89771V11.4634Z" />
    </symbol>

    <symbol id="round-shape" viewBox="0 0 81 93" xmlns="http://www.w3.org/2000/svg">
        <path d="M46.7117 92.7224C48.4003 92.7224 50.089 92.6296 51.7776 92.444L51.6106 90.9595C38.0273 92.4255 24.7409 87.7678 15.1472 78.1741C5.55358 68.5805 0.89592 55.2941 2.36187 41.7108C4.58864 21.1318 21.141 4.598 41.72 2.37123L41.553 0.886719C31.2171 2.0001 21.4564 6.67632 14.071 14.0803C6.68552 21.4658 1.99075 31.2264 0.877361 41.5624C-0.625706 55.591 4.1804 69.3413 14.0895 79.2504C22.811 87.9534 34.4645 92.7224 46.7117 92.7224Z" />
        <path d="M46.656 89.9574C59.831 89.9574 72.1525 84.0379 80.4843 73.702L79.3153 72.7556C71.2803 82.739 59.3671 88.4544 46.656 88.4544C33.9449 88.4544 22.0316 82.739 13.9967 72.7556C1.82372 57.6322 1.82372 35.6985 13.9967 20.575L12.8277 19.6287C6.70406 27.2368 3.32681 36.8304 3.32681 46.6653C3.32681 56.4817 6.70406 66.0939 12.8277 73.702C21.1595 84.0379 33.4809 89.9574 46.656 89.9574Z" />
    </symbol>

    <symbol id="line-shape" viewBox="0 0 162 49" xmlns="http://www.w3.org/2000/svg">
        <path d="M68.2531 48.1243H162V46.6212H68.2531C55.4306 46.6212 43.3875 41.6296 34.3134 32.574L1.98816 0.248779L0.930435 1.3065L33.2557 33.6317C37.8762 38.2523 43.2761 41.8522 49.307 44.3574C55.3564 46.8439 61.7212 48.1243 68.2531 48.1243Z" />
    </symbol>

    <symbol id="user" viewBox="0 0 22 24" xmlns="http://www.w3.org/2000/svg">
        <path d="M11.0016 12.4626C14.4302 12.4626 17.2329 9.6599 17.2329 6.2313C17.2329 2.80271 14.4302 0 11.0016 0C7.57304 0 4.77039 2.80271 4.77039 6.2313C4.77039 9.6599 7.57309 12.4626 11.0016 12.4626Z" />
        <path d="M21.6955 16.9965C21.5323 16.5883 21.3146 16.2074 21.0697 15.8536C19.818 14.0032 17.8861 12.7788 15.7092 12.4794C15.4371 12.4523 15.1378 12.5066 14.9201 12.6699C13.7772 13.5135 12.4167 13.9488 11.0017 13.9488C9.58669 13.9488 8.22616 13.5135 7.0833 12.6699C6.86559 12.5066 6.56627 12.425 6.29418 12.4794C4.11731 12.7788 2.15814 14.0032 0.933663 15.8536C0.688768 16.2074 0.471059 16.6155 0.30783 16.9965C0.226216 17.1598 0.253403 17.3502 0.335018 17.5135C0.552726 17.8944 0.824809 18.2754 1.06971 18.6019C1.45064 19.119 1.85882 19.5815 2.32142 20.0169C2.70236 20.3978 3.13773 20.7516 3.57314 21.1053C5.72278 22.7108 8.30783 23.5543 10.9745 23.5543C13.6412 23.5543 16.2262 22.7107 18.3759 21.1053C18.8112 20.7788 19.2466 20.3978 19.6276 20.0169C20.0629 19.5815 20.4983 19.1189 20.8793 18.6019C21.1514 18.2482 21.3963 17.8944 21.614 17.5135C21.75 17.3502 21.7772 17.1597 21.6955 16.9965Z"/>
    </symbol>

    <symbol id="download" viewBox="0 0 27 27" xmlns="http://www.w3.org/2000/svg">
        <path d="M27 25.3125C27 26.2445 26.2445 27 25.3125 27H1.6875C0.755525 27 0 26.2445 0 25.3125C0 24.3805 0.755525 23.625 1.6875 23.625H25.3125C26.2445 23.625 27 24.3805 27 25.3125ZM12.3068 19.9667C12.6363 20.2962 13.0681 20.461 13.5 20.461C13.9318 20.461 14.3638 20.2962 14.6932 19.9667L20.6721 13.9878C21.3312 13.3288 21.3312 12.2604 20.6721 11.6014C20.0131 10.9423 18.9447 10.9423 18.2856 11.6014L15.1875 14.6995V1.6875C15.1875 0.755525 14.432 0 13.5 0C12.568 0 11.8125 0.755525 11.8125 1.6875V14.6995L8.71436 11.6014C8.05533 10.9423 6.98688 10.9423 6.32786 11.6014C5.66884 12.2604 5.66884 13.3288 6.32786 13.9878L12.3068 19.9667Z" />
    </symbol>


    <symbol id="customers" viewBox="0 0 27 27" xmlns="http://www.w3.org/2000/svg">
        <g clip-path="url(#clip0_179_734)">
            <path d="M17.4278 14.291C17.0603 16.0941 15.4098 17.4551 13.5 17.4551C11.5902 17.4551 9.99249 16.0941 9.62498 14.291H8.04285C8.43081 16.9673 10.718 19.0371 13.5 19.0371C16.282 19.0371 18.6219 16.9673 19.0099 14.291H17.4278Z"/>
            <path d="M20.5919 14.291C20.1926 17.8408 17.1549 20.6191 13.5 20.6191C9.84514 20.6191 6.86016 17.8408 6.4608 14.291H0V15.082C0 15.4227 0.218637 15.7255 0.541529 15.8329L3.79619 16.895C3.93293 17.2828 4.07737 17.6359 4.23188 17.9618L2.73016 20.9791C2.57876 21.2834 2.63899 21.6504 2.87924 21.8906L5.10938 24.1208C5.35117 24.3625 5.7173 24.4197 6.02089 24.2698L9.0382 22.7681C9.3642 22.9226 9.71721 23.0671 10.105 23.2038L11.1671 26.4585C11.2745 26.7814 11.5773 27 11.918 27H15.1348C15.4754 27 15.7782 26.7814 15.8856 26.4585L16.9478 23.2038C17.3356 23.0671 17.6886 22.9226 18.0145 22.7681L21.0318 24.2698C21.3354 24.4204 21.7024 24.3625 21.9434 24.1208L24.1735 21.8906C24.4137 21.6504 24.474 21.2834 24.3226 20.9791L22.8209 17.9618C22.9754 17.6358 23.1198 17.2828 23.2565 16.895L26.4585 15.8329C26.7814 15.7255 27 15.4227 27 15.082V14.291H20.5919Z" />
            <path d="M11.2726 14.291C11.6003 15.2098 12.4701 15.873 13.5 15.873C14.5299 15.873 15.4524 15.2098 15.7801 14.291H11.2726Z" />
            <path d="M13.5 0C11.755 0 10.3359 1.41903 10.3359 3.16406C10.3359 4.9091 11.755 6.32812 13.5 6.32812C15.245 6.32812 16.7168 4.9091 16.7168 3.16406C16.7168 1.41903 15.245 0 13.5 0Z" />
            <path d="M21.4629 0C19.7179 0 18.2988 1.41903 18.2988 3.16406C18.2988 4.9091 19.7179 6.32812 21.4629 6.32812C23.2079 6.32812 24.627 4.9091 24.627 3.16406C24.627 1.41903 23.2079 0 21.4629 0Z" />
            <path d="M5.58984 0C3.84481 0 2.42578 1.41903 2.42578 3.16406C2.42578 4.9091 3.84481 6.32812 5.58984 6.32812C7.33488 6.32812 8.75391 4.9091 8.75391 3.16406C8.75391 1.41903 7.33488 0 5.58984 0Z" />
            <path d="M24.1611 7.0603C23.3938 7.59339 22.466 7.91022 21.4629 7.91022C20.464 7.91022 19.539 7.59677 18.7736 7.06774C18.4267 7.26692 18.0932 7.49088 17.7913 7.76093C19.3296 8.91086 20.3977 10.7068 20.6236 12.7091H27V11.918C27 9.84964 25.8461 8.01084 24.1611 7.0603Z" />
            <path d="M13.5 7.91016C10.7152 7.91016 8.40398 10.0293 8.01929 12.709H19.0334C18.6488 10.0293 16.2848 7.91016 13.5 7.91016Z" />
            <path d="M8.27914 7.06774C7.5137 7.59677 6.58874 7.91022 5.58984 7.91022C4.58678 7.91022 3.65892 7.59339 2.89169 7.0603C1.20662 8.01084 0 9.84964 0 11.918V12.7091H6.42916C6.65508 10.7068 7.72311 8.91086 9.26142 7.76093C8.95946 7.49088 8.62608 7.26692 8.27914 7.06774Z" />
        </g>
        <defs>
        <clipPath id="clip0_179_734">
        <rect width="27" height="27" fill="white"/>
        </clipPath>
        </defs>
    </symbol>

    <symbol id="code" viewBox="0 0 27 21" xmlns="http://www.w3.org/2000/svg">
        <path d="M23.1789 0.622803H3.82113C1.71439 0.622803 0 2.3372 0 4.44446V16.5554C0 18.6627 1.71439 20.3771 3.82113 20.3771H23.1789C25.2856 20.3771 27 18.6627 27 16.5554V4.44446C27 2.3372 25.2856 0.622803 23.1789 0.622803ZM9.79857 6.70255L5.77863 10.7225L9.3535 14.2974C9.66252 14.6064 9.66252 15.1074 9.3535 15.4159C9.045 15.7249 8.54402 15.7249 8.235 15.4159L4.10063 11.2815C3.7916 10.9725 3.7916 10.472 4.10063 10.163L8.67955 5.58405C8.98857 5.27503 9.48955 5.27503 9.79857 5.58405C10.1071 5.89255 10.1071 6.39353 9.79857 6.70255ZM16.3234 4.84155L12.1405 16.6852C11.995 17.0975 11.543 17.3132 11.1312 17.1677C10.7193 17.0221 10.5031 16.5702 10.6487 16.1583L14.8315 4.31474C14.9771 3.90288 15.4285 3.68667 15.8409 3.83222C16.2527 3.97776 16.4689 4.4297 16.3234 4.84155ZM22.8994 10.8369L18.3204 15.4159C18.0114 15.7249 17.5104 15.7249 17.2014 15.4159C16.8929 15.1074 16.8929 14.6064 17.2014 14.2974L21.2214 10.2774L17.6465 6.70255C17.3375 6.39353 17.3375 5.89255 17.6465 5.58405C17.955 5.27503 18.456 5.27503 18.765 5.58405L22.8994 9.71843C23.2084 10.0275 23.2084 10.5279 22.8994 10.8369Z" />
    </symbol>

    
    <symbol id="hand-shake" viewBox="0 0 25 25" xmlns="http://www.w3.org/2000/svg">
        <g clip-path="url(#clip0_179_891)">
        <path d="M22.7823 11.8803L25 9.6626L17.7287 2.39136L15.7253 4.39472C16.0554 4.56409 16.3629 4.78175 16.6385 5.04434L17.1323 5.51481L16.1208 6.57649L15.627 6.10602C15.1649 5.66571 14.5566 5.42663 13.9207 5.43519C13.2825 5.44291 12.6825 5.69567 12.2312 6.14698L9.57027 8.80788C9.11069 9.26745 9.11069 10.0153 9.57027 10.4748C10.0298 10.9344 10.7777 10.9344 11.2372 10.4748L14.0625 7.64956L21.4097 14.9533L21.787 14.576C22.5033 13.8596 22.861 12.8754 22.7823 11.8803Z" />
        <path d="M19.971 15.5948L14.0625 9.72355L12.2741 11.5119C11.7585 12.0275 11.081 12.2853 10.4037 12.2854C9.72626 12.2854 9.04902 12.0276 8.53333 11.5119C7.50201 10.4806 7.50201 8.8025 8.53333 7.77113L11.1942 5.11023C11.4707 4.83371 11.7823 4.60412 12.1186 4.42473C10.9009 3.50118 9.59218 3.58169 8.74777 3.86935L7.27129 2.39282L0 9.66411L2.28804 11.9522C2.20934 12.9472 2.56705 13.9315 3.28334 14.6477L10.848 22.2124C11.3768 22.7412 12.2342 22.7412 12.7629 22.2124C13.2917 21.6837 13.2917 20.8264 12.763 20.2976L9.40878 16.9427L10.4457 15.9058C10.4457 15.9058 14.351 19.8079 14.4636 19.9205C14.995 20.4519 15.8597 20.4519 16.3911 19.9205C16.9078 19.4039 16.9272 18.5877 16.4415 18.0476L12.5914 14.1975L13.6283 13.1606L18.0199 17.5522C18.5595 18.0918 19.4344 18.0918 19.9741 17.5522C20.5149 17.0113 20.5136 16.134 19.971 15.5948Z"/>
        </g>
        <defs>
        <clipPath id="clip0_179_891">
        <rect width="25" height="25" fill="white"/>
        </clipPath>
        </defs>
    </symbol>

    <symbol id="calendar" viewBox="0 0 20 20" xmlns="http://www.w3.org/2000/svg">
        <path d="M16.3787 1.875H15.625V1.25C15.625 1.08424 15.5592 0.925268 15.4419 0.808058C15.3247 0.690848 15.1658 0.625 15 0.625C14.8342 0.625 14.6753 0.690848 14.5581 0.808058C14.4408 0.925268 14.375 1.08424 14.375 1.25V1.875H10.625V1.25C10.625 1.08424 10.5592 0.925268 10.4419 0.808058C10.3247 0.690848 10.1658 0.625 10 0.625C9.83424 0.625 9.67527 0.690848 9.55806 0.808058C9.44085 0.925268 9.375 1.08424 9.375 1.25V1.875H5.625V1.25C5.625 1.08424 5.55915 0.925268 5.44194 0.808058C5.32473 0.690848 5.16576 0.625 5 0.625C4.83424 0.625 4.67527 0.690848 4.55806 0.808058C4.44085 0.925268 4.375 1.08424 4.375 1.25V1.875H3.62125C2.99266 1.87599 2.3901 2.12614 1.94562 2.57062C1.50114 3.0151 1.25099 3.61766 1.25 4.24625V17.0037C1.25099 17.6323 1.50114 18.2349 1.94562 18.6794C2.3901 19.1239 2.99266 19.374 3.62125 19.375H16.3787C17.0073 19.374 17.6099 19.1239 18.0544 18.6794C18.4989 18.2349 18.749 17.6323 18.75 17.0037V4.24625C18.749 3.61766 18.4989 3.0151 18.0544 2.57062C17.6099 2.12614 17.0073 1.87599 16.3787 1.875ZM8.56625 12.9419L6.69125 14.8169C6.57405 14.934 6.4151 14.9999 6.24937 14.9999C6.08365 14.9999 5.9247 14.934 5.8075 14.8169L4.5575 13.5669C4.49781 13.5092 4.45019 13.4403 4.41744 13.364C4.38468 13.2878 4.36744 13.2057 4.36672 13.1228C4.366 13.0398 4.38181 12.9575 4.41324 12.8807C4.44466 12.8038 4.49107 12.7341 4.54975 12.6754C4.60844 12.6167 4.67822 12.5703 4.75503 12.5389C4.83184 12.5074 4.91414 12.4916 4.99713 12.4923C5.08011 12.4931 5.16213 12.5103 5.23838 12.5431C5.31463 12.5758 5.3836 12.6234 5.44125 12.6831L6.25 13.4913L7.68313 12.0581C7.801 11.9443 7.95888 11.8813 8.12275 11.8827C8.28662 11.8841 8.44338 11.9499 8.55926 12.0657C8.67514 12.1816 8.74087 12.3384 8.7423 12.5022C8.74372 12.6661 8.6801 12.824 8.56625 12.9419ZM8.56625 7.31687L6.69125 9.19187C6.57405 9.30904 6.4151 9.37487 6.24937 9.37487C6.08365 9.37487 5.9247 9.30904 5.8075 9.19187L4.5575 7.94187C4.49781 7.88422 4.45019 7.81526 4.41744 7.739C4.38468 7.66275 4.36744 7.58074 4.36672 7.49775C4.366 7.41476 4.38181 7.33246 4.41324 7.25565C4.44466 7.17884 4.49107 7.10906 4.54975 7.05038C4.60844 6.9917 4.67822 6.94529 4.75503 6.91386C4.83184 6.88244 4.91414 6.86662 4.99713 6.86734C5.08011 6.86806 5.16213 6.88531 5.23838 6.91806C5.31463 6.95082 5.3836 6.99843 5.44125 7.05813L6.25 7.86625L7.68313 6.43313C7.801 6.31928 7.95888 6.25628 8.12275 6.2577C8.28662 6.25913 8.44338 6.32486 8.55926 6.44074C8.67514 6.55662 8.74087 6.71338 8.7423 6.87725C8.74372 7.04112 8.6801 7.199 8.56625 7.31687ZM15 14.375H10.625C10.4592 14.375 10.3003 14.3092 10.1831 14.1919C10.0658 14.0747 10 13.9158 10 13.75C10 13.5842 10.0658 13.4253 10.1831 13.3081C10.3003 13.1908 10.4592 13.125 10.625 13.125H15C15.1658 13.125 15.3247 13.1908 15.4419 13.3081C15.5592 13.4253 15.625 13.5842 15.625 13.75C15.625 13.9158 15.5592 14.0747 15.4419 14.1919C15.3247 14.3092 15.1658 14.375 15 14.375ZM15 8.75H10.625C10.4592 8.75 10.3003 8.68415 10.1831 8.56694C10.0658 8.44973 10 8.29076 10 8.125C10 7.95924 10.0658 7.80027 10.1831 7.68306C10.3003 7.56585 10.4592 7.5 10.625 7.5H15C15.1658 7.5 15.3247 7.56585 15.4419 7.68306C15.5592 7.80027 15.625 7.95924 15.625 8.125C15.625 8.29076 15.5592 8.44973 15.4419 8.56694C15.3247 8.68415 15.1658 8.75 15 8.75Z" />
    </symbol>

    <symbol id="hand-dollar-sign" viewBox="0 0 21 21" fill="none" xmlns="http://www.w3.org/2000/svg">
        <path d="M18.7338 12.8893L16.4067 15.9325C15.9411 16.5413 15.2184 16.8985 14.4519 16.8985H10.1309C9.79109 16.8985 9.51562 16.623 9.51562 16.2833C9.51562 15.9435 9.79109 15.668 10.1309 15.668H13.876C14.6809 15.668 15.355 15.0093 15.3396 14.2045C15.3247 13.4246 14.6878 12.7969 13.9043 12.7969H9.59766C8.36116 11.608 6.45303 11.4689 5.05714 12.466L4.59375 12.7969V19.7696H8.69531H9.51562H15.2933C16.5493 19.7696 17.7192 19.1309 18.3984 18.0743L20.7994 14.3394C20.9304 14.1357 21 13.8987 21 13.6565C21 12.4487 19.4675 11.9299 18.7338 12.8893Z" fill="#FF9F0E"/>
        <path d="M2.74805 11.5664H0.615234C0.275461 11.5664 0 11.8419 0 12.1816V20.3848C0 20.7245 0.275461 21 0.615234 21H2.74805C3.08782 21 3.36328 20.7245 3.36328 20.3848V12.1816C3.36328 11.8419 3.08782 11.5664 2.74805 11.5664Z" fill="#FF9F0E"/>
        <path d="M11.7432 3.40039C11.618 3.49637 11.549 3.64169 11.5253 3.76773C11.4925 3.94159 11.534 4.10311 11.631 4.17915C11.6651 4.20594 11.7028 4.23227 11.7432 4.25815V3.40039Z" fill="#FF9F0E"/>
        <path d="M12.1816 10.2539C15.0086 10.2539 17.3086 7.95396 17.3086 5.12695C17.3086 2.29995 15.0086 0 12.1816 0C9.35464 0 7.05469 2.29995 7.05469 5.12695C7.05469 7.95396 9.35464 10.2539 12.1816 10.2539ZM10.6297 6.80322C10.7536 6.61373 11.0079 6.56041 11.1974 6.68452C11.419 6.82943 11.5578 6.89227 11.7432 6.91831V5.18618C11.4812 5.06613 11.2854 4.95059 11.1247 4.82454C10.7844 4.55757 10.629 4.09443 10.7191 3.61573C10.8174 3.0941 11.1805 2.67906 11.6667 2.53263C11.6924 2.52488 11.7179 2.51779 11.7432 2.5111V2.25586C11.7432 2.02937 11.9269 1.8457 12.1533 1.8457C12.3798 1.8457 12.5635 2.02937 12.5635 2.25586V2.46615C12.9617 2.53509 13.2432 2.73115 13.3795 2.88762C13.5283 3.05841 13.5104 3.31751 13.3396 3.46627C13.1697 3.61426 12.9125 3.59744 12.7633 3.42915C12.754 3.41968 12.6888 3.35692 12.5635 3.3107V4.636C12.6363 4.66303 12.7091 4.68923 12.7805 4.7145C13.5014 4.96937 13.9025 5.63678 13.7783 6.37526C13.6818 6.94928 13.245 7.53141 12.5635 7.70429V7.99805C12.5635 8.22453 12.3798 8.4082 12.1533 8.4082C11.9269 8.4082 11.7432 8.22453 11.7432 7.99805V7.74367C11.412 7.71504 11.1375 7.62558 10.7483 7.371C10.5588 7.24697 10.5057 6.99279 10.6297 6.80322Z" fill="#FF9F0E"/>
        <path d="M12.9694 6.23931C12.9963 6.07898 13.0073 5.69692 12.5635 5.51001V6.82747C12.7942 6.69532 12.932 6.46161 12.9694 6.23931Z" fill="#FF9F0E"/>
    </symbol>

    <symbol id="chat" viewBox="0 0 20 20" xmlns="http://www.w3.org/2000/svg">
        <g clip-path="url(#clip0_179_925)">
        <path d="M8.24203 6.05469C3.71887 6.05469 4.11365e-05 9.16512 4.11365e-05 12.9885C4.11365e-05 14.5168 0.592854 16.0701 1.68 17.2739L0.144807 19.0283C-0.00624793 19.2011 -0.0428886 19.4466 0.0526974 19.656C0.147697 19.8654 0.355979 19.9999 0.585979 19.9999H8.82797C12.1676 19.9999 16.484 17.1241 16.484 12.9885C16.484 9.16512 12.7652 6.05469 8.24203 6.05469ZM4.68742 14.0625C4.04141 14.0625 3.51559 13.5366 3.51559 12.8907C3.51559 12.2446 4.04145 11.7188 4.68742 11.7188C5.3334 11.7188 5.85926 12.2447 5.85926 12.8907C5.8593 13.5366 5.33344 14.0625 4.68742 14.0625ZM8.24203 14.0625C7.59602 14.0625 7.0702 13.5366 7.0702 12.8907C7.0702 12.2446 7.59606 11.7188 8.24203 11.7188C8.88801 11.7188 9.41387 12.2447 9.41387 12.8907C9.41387 13.5366 8.88805 14.0625 8.24203 14.0625ZM11.7966 14.0625C11.1506 14.0625 10.6248 13.5366 10.6248 12.8907C10.6248 12.2446 11.1507 11.7188 11.7966 11.7188C12.4426 11.7188 12.9685 12.2447 12.9685 12.8907C12.9685 13.5366 12.4427 14.0625 11.7966 14.0625Z" />
        <path d="M19.8582 11.923L18.4787 10.3134C19.4634 9.20224 19.9996 7.84724 19.9996 6.4454C19.9996 2.89153 16.5825 0.000244141 12.3826 0.000244141C8.58472 0.000244141 5.35812 2.367 4.78839 5.44751C5.84808 5.08743 7.03648 4.88274 8.24206 4.88274C13.373 4.88274 17.5886 8.46653 17.6502 12.8906H19.4137C19.9142 12.8906 20.183 12.3012 19.8582 11.923Z" />
        </g>
        <defs>
        <clipPath id="clip0_179_925">
        <rect width="20" height="20" fill="white"/>
        </clipPath>
        </defs>
    </symbol>

    <symbol id="dollar" viewBox="0 0 14 18" xmlns="http://www.w3.org/2000/svg">
        <path d="M10.1727 1.65819L9.40618 4.65632H4.28432L3.76194 3.41847C3.63705 3.04935 3.90956 2.66894 4.30136 2.66894H6.25467C6.33985 2.66894 6.41932 2.65191 6.49316 2.62348V3.08912C6.49316 3.37871 6.68624 3.6115 6.91903 3.6115C7.15182 3.6115 7.3449 3.37871 7.3449 3.08912V0.988132C7.39037 0.971097 7.43577 0.965454 7.48688 0.965454H9.61624C9.97967 0.965454 10.2522 1.30046 10.1727 1.65819Z" />
        <path d="M9.87334 5.50793H4.12408C3.83007 5.50793 3.59174 5.74627 3.59174 6.04027V6.67908C3.59174 6.97308 3.83007 7.21142 4.12408 7.21142H9.87334C10.1673 7.21142 10.4057 6.97308 10.4057 6.67908V6.04027C10.4057 5.74627 10.1673 5.50793 9.87334 5.50793Z"/>
        <path d="M13.8637 12.606C13.4605 10.4028 11.6549 8.79018 10.434 7.93274C10.2523 8.01791 10.0479 8.06338 9.83777 8.06338H4.15946C3.94934 8.06338 3.74498 8.01791 3.56324 7.93274C2.34237 8.79018 0.536673 10.4028 0.133532 12.606C-0.542166 16.3139 1.28626 18.0003 6.99858 18.0003C12.7734 18.0003 14.5394 16.3139 13.8637 12.606ZM6.93619 12.4356L7.2655 12.5151C7.88445 12.6741 8.31602 13.2249 8.31602 13.8666V14.0085C8.31602 14.5877 7.94125 15.076 7.42451 15.2578V15.6326C7.42451 15.8654 7.23143 16.0584 6.99864 16.0584C6.76585 16.0584 6.57277 15.8654 6.57277 15.6326V15.2578C6.05608 15.0761 5.68126 14.5877 5.68126 14.0085C5.68126 13.7701 5.86864 13.5827 6.10713 13.5827C6.33997 13.5827 6.533 13.7701 6.533 14.0085C6.533 14.2641 6.74311 14.4742 6.99864 14.4742C7.25416 14.4742 7.46428 14.2641 7.46428 14.0085V13.8666C7.46428 13.6167 7.29962 13.4066 7.06108 13.3442L6.73178 13.2647C6.11282 13.1057 5.68126 12.5549 5.68126 11.9133V11.7713C5.68126 11.1921 6.05602 10.7038 6.57277 10.522V10.1473C6.57277 9.91448 6.76585 9.7214 6.99864 9.7214C7.23143 9.7214 7.42451 9.91448 7.42451 10.1473V10.522C7.9412 10.7037 8.31602 11.1921 8.31602 11.7713C8.31602 12.0098 8.12864 12.1972 7.89015 12.1972C7.6573 12.1972 7.46428 12.0098 7.46428 11.7713C7.46428 11.5158 7.25416 11.3056 6.99864 11.3056C6.74311 11.3056 6.533 11.5158 6.533 11.7713V11.9133C6.533 12.1631 6.69765 12.3731 6.93619 12.4356Z" />
    </symbol>

    <symbol id="user-right" viewBox="0 0 17 17" xmlns="http://www.w3.org/2000/svg">
        <g clip-path="url(#clip0_179_1097)">
        <path d="M8.14583 8.67308C10.2974 8.67308 12.0417 6.92885 12.0417 4.77724C12.0417 2.62563 10.2974 0.881409 8.14583 0.881409C5.99422 0.881409 4.25 2.62563 4.25 4.77724C4.25 6.92885 5.99422 8.67308 8.14583 8.67308Z" />
        <path fill-rule="evenodd" clip-rule="evenodd" d="M9.15523 15.4107C8.41927 14.6202 7.96877 13.5605 7.96877 12.396C7.96877 11.2039 8.44123 10.1209 9.20906 9.32471C8.86198 9.2978 8.5071 9.28363 8.14585 9.28363C5.79277 9.28363 3.70956 9.87226 2.41615 10.7541C1.42944 11.427 0.885437 12.282 0.885437 13.1795V14.2065C0.885437 14.526 1.01223 14.8327 1.23819 15.058C1.46415 15.2839 1.77015 15.4107 2.0896 15.4107H9.15523Z" />
        <path fill-rule="evenodd" clip-rule="evenodd" d="M12.3959 8.67731C10.3431 8.67731 8.67712 10.3433 8.67712 12.3961C8.67712 14.4488 10.3431 16.1148 12.3959 16.1148C14.4486 16.1148 16.1146 14.4488 16.1146 12.3961C16.1146 10.3433 14.4486 8.67731 12.3959 8.67731ZM10.6845 13.0151L11.747 13.7235C11.9574 13.8637 12.2386 13.8361 12.4171 13.6569L14.188 11.8861C14.3955 11.6792 14.3955 11.3421 14.188 11.1352C13.9811 10.9277 13.644 10.9277 13.4371 11.1352L11.9737 12.5979L11.2739 12.1311C11.0302 11.9682 10.7001 12.0348 10.5372 12.2785C10.3743 12.5221 10.4409 12.8522 10.6845 13.0151Z" />
        </g>
        <defs>
        <clipPath id="clip0_179_1097">
        <rect width="17" height="17" fill="white" transform="translate(0 0.000244141)"/>
        </clipPath>
        </defs>
    </symbol>

    <symbol id="power" viewBox="0 0 17 17" xmlns="http://www.w3.org/2000/svg">
        <g clip-path="url(#clip0_179_1104)">
        <path d="M2.78249 8.50329C2.78249 6.10484 4.26712 4.04691 6.36549 3.19942L7.4362 1.04877C3.78619 1.5673 0.970032 4.71231 0.970032 8.50329C0.970032 11.9523 3.30114 14.867 6.47044 15.7551L6.67638 13.9226C4.41517 13.1597 2.78249 11.0186 2.78249 8.50329Z" />
        <path d="M16.03 8.50326C16.03 5.05489 13.6999 2.1408 10.5317 1.25201L10.3211 3.08316C12.5836 3.84536 14.2175 5.98706 14.2175 8.50326C14.2175 10.8877 12.7502 12.9356 10.6712 13.7922L9.5708 15.9568C13.2174 15.4353 16.03 12.2918 16.03 8.50326Z" />
        <path d="M12.8101 7.59076C12.8814 7.45035 12.8747 7.29612 12.7923 7.16189C12.7099 7.02759 12.5637 6.97407 12.4061 6.97407H8.96127L9.70285 0.52699C9.72811 0.308419 9.59263 0.0819746 9.38159 0.0193316C9.33803 0.00641782 9.29391 0.000244141 9.25036 0.000244141C9.08304 0.000244141 8.92491 0.0954548 8.84703 0.251836L4.18828 9.61295C4.11838 9.75336 4.12609 9.94033 4.20867 10.0738C4.2913 10.2072 4.43698 10.3158 4.59393 10.3158H7.99336L7.29647 16.5202C7.27211 16.7379 7.40697 16.9211 7.61688 16.9838C7.65998 16.9967 7.70365 17.0002 7.74675 17.0002C7.91372 17.0002 8.07186 16.9075 8.15076 16.7523L12.8101 7.59076Z" />
        </g>
        <defs>
        <clipPath id="clip0_179_1104">
        <rect width="17" height="17" fill="white" transform="translate(0 0.000244141)"/>
        </clipPath>
        </defs>
    </symbol>

    <symbol id="bulb" viewBox="0 0 22 21" fill="none" xmlns="http://www.w3.org/2000/svg">
        <path d="M5.18973 18.8719C5.04852 18.8719 4.90731 18.8117 4.78627 18.7113L2.36552 16.2821C2.14362 16.0612 2.14362 15.7199 2.36552 15.4991L3.85832 14.0134C3.95918 13.913 3.97936 13.7725 3.93901 13.632C2.84967 11.1224 3.45486 8.17115 5.45198 6.26389C7.99377 3.85471 12.109 3.87479 14.6307 6.30404C15.9015 7.54878 16.6278 9.19506 16.6278 10.9819C16.6479 12.7486 15.9621 14.435 14.6912 15.6798C12.7949 17.5669 9.95054 18.1291 7.46927 17.1052C7.34823 17.065 7.20702 17.0851 7.10616 17.1855L5.59319 18.6912C5.47215 18.8117 5.33094 18.8719 5.18973 18.8719ZM3.53555 15.9006L5.16956 17.5268L6.27907 16.4226C6.7027 16.001 7.32806 15.8805 7.87273 16.1014C9.93036 16.9647 12.2906 16.5029 13.8843 14.9169C14.9332 13.8729 15.4981 12.4876 15.4981 11.0019C15.4779 9.51628 14.8929 8.15108 13.8237 7.1071C11.7258 5.07938 8.31653 5.0593 6.19838 7.06695C4.5442 8.63291 4.03987 11.1023 4.94766 13.1903C5.18973 13.7323 5.06869 14.3748 4.62489 14.7964L3.53555 15.9006Z" fill="#000248"/>
        <path d="M3.81799 20.0765C3.67678 20.0765 3.53557 20.0162 3.41453 19.9159L1.09465 17.6071C0.872747 17.3862 0.872747 17.0449 1.09465 16.8241C1.31655 16.6032 1.65949 16.6032 1.88139 16.8241L4.22145 19.1529C4.44335 19.3738 4.44335 19.7151 4.22145 19.9359C4.10041 20.0363 3.9592 20.0765 3.81799 20.0765Z" fill="#000248"/>
        <path d="M2.50673 20.9999C2.36552 20.9999 2.22431 20.9397 2.10327 20.8393L0.166671 18.912C-0.0552314 18.6912 -0.0552314 18.3499 0.166671 18.129C0.388573 17.9082 0.731512 17.9082 0.953414 18.129L2.89001 20.0564C3.11192 20.2772 3.11192 20.6185 2.89001 20.8393C2.78915 20.9397 2.64794 20.9999 2.50673 20.9999Z" fill="#000248"/>
        <path d="M16.8496 19.6348C16.7084 19.6348 16.5672 19.5746 16.4462 19.4742L14.5096 17.5469C14.2877 17.326 14.2877 16.9847 14.5096 16.7639C14.7315 16.5431 15.0744 16.5431 15.2963 16.7639L17.2329 18.6912C17.4548 18.9121 17.4548 19.2534 17.2329 19.4742C17.132 19.5947 16.9908 19.6348 16.8496 19.6348Z" fill="#000248"/>
        <path d="M3.75747 6.62525C3.61626 6.62525 3.47505 6.56502 3.35401 6.46464L1.41741 4.53729C1.21568 4.31645 1.21568 3.95508 1.41741 3.73423C1.63931 3.51339 1.98225 3.51339 2.20415 3.73423L4.14075 5.66158C4.36265 5.88242 4.36265 6.22372 4.14075 6.44456C4.06006 6.56502 3.91885 6.62525 3.75747 6.62525Z" fill="#000248"/>
        <path d="M15.4376 6.32404C15.2964 6.32404 15.1551 6.26381 15.0341 6.16343C14.8122 5.94259 14.8122 5.60129 15.0341 5.38045L16.9707 3.45311C17.1926 3.23227 17.5355 3.23227 17.7574 3.45311C17.9793 3.67395 17.9793 4.01525 17.7574 4.23609L15.8208 6.16343C15.7402 6.26381 15.5788 6.32404 15.4376 6.32404Z" fill="#000248"/>
        <path d="M20.4404 12.1664H17.6969C17.3943 12.1664 17.1321 11.9255 17.1321 11.6043C17.1321 11.283 17.3742 11.0421 17.6969 11.0421H20.4404C20.743 11.0421 21.0053 11.283 21.0053 11.6043C21.0053 11.9255 20.743 12.1664 20.4404 12.1664Z" fill="#000248"/>
        <path d="M9.32522 3.85468C9.02262 3.85468 8.76038 3.61377 8.76038 3.29254V0.562141C8.76038 0.260994 9.00245 0 9.32522 0C9.64798 0 9.89006 0.240918 9.89006 0.562141V3.29254C9.89006 3.59369 9.64798 3.85468 9.32522 3.85468Z" fill="#000248"/>
    </symbol>

    <symbol id="wrong" viewBox="0 0 24 24" fill="none" xmlns="http://www.w3.org/2000/svg">
        <path d="M12.0039 24C5.357 24 0 18.6219 0 11.9574C0 5.33169 5.39573 -0.0270204 12.0813 0.000102508C18.6856 0.0272254 24.0155 5.40919 24 12.0659C23.9845 18.6297 18.5965 24 12.0039 24Z" fill="#FF505A"/>
        <g clip-path="url(#clip0_179_2043)">
        <path d="M13.3157 12.0002L15.7898 9.52534C16.0632 9.25189 16.0632 8.80856 15.7898 8.53554L15.46 8.2056C15.1866 7.93206 14.7434 7.93206 14.4704 8.2056L11.9964 10.6804L9.52229 8.20509C9.24893 7.93164 8.80574 7.93164 8.5328 8.20509L8.20246 8.53502C7.9291 8.80856 7.9291 9.25189 8.20246 9.52492L10.677 12.0002L8.20297 14.4751C7.92952 14.7486 7.92952 15.1919 8.20297 15.465L8.5328 15.7949C8.80617 16.0683 9.24936 16.0683 9.52229 15.7949L11.9964 13.32L14.4704 15.7949C14.7439 16.0683 15.1871 16.0683 15.46 15.7949L15.7898 15.465C16.0632 15.1914 16.0632 14.7481 15.7898 14.4751L13.3157 12.0002Z" fill="white"/>
        </g>
        <defs>
        <clipPath id="clip0_179_2043">
        <rect width="7.99744" height="8" fill="white" transform="translate(7.99744 8)"/>
        </clipPath>
        </defs>
    </symbol>

    <symbol id="trending" viewBox="0 0 24 15" fill="none" xmlns="http://www.w3.org/2000/svg">
        <path d="M22.6143 3.63046C22.2882 3.63046 22.0056 3.36959 22.0056 3.02176V1.23914L20.1142 1.19566C19.7882 1.19566 19.5273 0.913049 19.5273 0.58696C19.5273 0.260871 19.8099 0 20.136 0L23.1795 0.0869571V3.02176C23.223 3.34785 22.9403 3.63046 22.6143 3.63046Z" fill="#000248"/>
        <path d="M6.26636 5.34795C6.11418 5.34795 5.96201 5.28274 5.83157 5.17404C5.59244 4.93491 5.59244 4.56534 5.83157 4.32621L8.09246 2.08706C8.33159 1.84793 8.70115 1.84793 8.94029 2.08706C9.17942 2.3262 9.17942 2.69576 8.94029 2.9349L6.70114 5.17404C6.57071 5.28274 6.41853 5.34795 6.26636 5.34795Z" fill="#000248"/>
        <path d="M17.223 12.1742C17.0708 12.1742 16.9186 12.109 16.7882 12.0003C16.549 11.7611 16.549 11.3916 16.7882 11.1524L20.1143 7.80459C20.3534 7.56546 20.723 7.56546 20.9621 7.80459C21.2012 8.04373 21.2012 8.41329 20.9621 8.65243L17.636 11.9785C17.5273 12.109 17.3751 12.1742 17.223 12.1742Z" fill="#000248"/>
        <path d="M0.614134 14.9998C0.46196 14.9998 0.309785 14.9346 0.179349 14.8259C-0.059783 14.5867 -0.059783 14.2172 0.179349 13.978L8.15766 5.99971C8.39679 5.76058 8.76636 5.76058 9.00549 5.99971L12.7012 9.69539L22.1795 0.217069C22.4186 -0.0220633 22.7882 -0.0220633 23.0273 0.217069C23.2665 0.456201 23.2665 0.825768 23.0273 1.0649L13.136 10.9563C12.8968 11.1954 12.5273 11.1954 12.2881 10.9563L8.59245 7.26059L1.02718 14.8259C0.918484 14.9346 0.766309 14.9998 0.614134 14.9998Z" fill="#000248"/>
    </symbol>

    <symbol id="plane" viewBox="0 0 20 20" fill="none" xmlns="http://www.w3.org/2000/svg">
        <g clip-path="url(#clip0_179_2065)">
        <path d="M9.37429 14.6154C9.08889 14.6154 8.8474 14.4176 8.78154 14.1319C8.71568 13.8022 8.91326 13.4725 9.24257 13.4066C10.9989 13.011 13.4577 12.1538 15.2799 10.3297C18.1998 7.40659 18.6827 2.94506 18.7706 1.23077C17.0582 1.31868 12.6015 1.8022 9.68165 4.72527C7.85947 6.54945 7.00327 9.03297 6.6081 10.7692C6.54224 11.0989 6.21293 11.2967 5.88362 11.2308C5.55432 11.1648 5.35673 10.8352 5.42259 10.5055C6.0373 7.73626 7.20086 5.49451 8.82545 3.86813C12.2503 0.43956 17.5192 0.043956 19.034 0C19.2975 0 19.5389 0.0879121 19.7146 0.263736C19.8902 0.43956 20 0.703297 19.978 0.945055C19.9341 2.48352 19.5389 7.73626 16.1141 11.1648C14.4896 12.7912 12.2503 13.956 9.48406 14.5714C9.46211 14.5934 9.4182 14.6154 9.37429 14.6154Z" fill="#000248"/>
        <path d="M0.943989 18.2637C0.790312 18.2637 0.636635 18.1978 0.504911 18.0879C0.263418 17.8461 0.263418 17.4725 0.504911 17.2308L5.02741 12.7472C5.26891 12.5055 5.64212 12.5055 5.88362 12.7472C6.12511 12.989 6.12511 13.3626 5.88362 13.6044L1.36111 18.0879C1.25134 18.1978 1.09767 18.2637 0.943989 18.2637Z" fill="#000248"/>
        <path d="M4.06148 18.1758C3.9078 18.1758 3.75413 18.1099 3.6224 18C3.38091 17.7582 3.38091 17.3846 3.6224 17.1428L6.52032 14.2417C6.76181 14 7.13503 14 7.37652 14.2417C7.61801 14.4835 7.61801 14.8571 7.37652 15.0989L4.50056 18C4.36884 18.1099 4.21516 18.1758 4.06148 18.1758Z" fill="#000248"/>
        <path d="M13.1504 9.73624C12.4259 9.73624 11.7015 9.47251 11.1526 8.92306C10.6257 8.39558 10.3184 7.69229 10.3184 6.92306C10.3184 6.1758 10.6038 5.47251 11.1526 4.92306C11.6795 4.39558 12.382 4.08789 13.1504 4.08789C13.8968 4.08789 14.5994 4.3736 15.1482 4.92306C16.2459 6.02196 16.2459 7.80218 15.1482 8.90108C14.5994 9.45053 13.8749 9.73624 13.1504 9.73624ZM13.1504 5.31866C12.7333 5.31866 12.3162 5.49448 12.0308 5.7802C11.7234 6.08789 11.5697 6.48349 11.5697 6.90108C11.5697 7.31866 11.7454 7.73624 12.0308 8.02196C12.6455 8.63734 13.6773 8.63734 14.292 8.02196C14.9067 7.40657 14.9067 6.37361 14.292 5.75822C13.9847 5.47251 13.5675 5.31866 13.1504 5.31866Z" fill="#000248"/>
        <path d="M11.7453 20C11.6575 20 11.5697 19.9781 11.4819 19.9561C11.2184 19.8462 11.0428 19.5825 11.0428 19.2967V15.6704C11.0428 15.3407 11.3062 15.055 11.6575 15.055C11.9868 15.055 12.2722 15.3187 12.2722 15.6704V18.066L13.8748 16.4616C13.8748 16.022 13.8968 14.9451 13.8968 13.9561C13.8968 13.6264 14.1602 13.3407 14.5115 13.3407C14.8408 13.3407 15.1262 13.6264 15.1262 13.9561C15.1262 13.9561 15.1262 14.6374 15.1262 15.3187C15.1043 16.9451 15.1043 16.9451 14.9286 17.1209L12.2503 19.8022C12.1185 19.9341 11.9429 20 11.7453 20Z" fill="#000248"/>
        <path d="M4.32492 8.94508H0.702524C0.417124 8.94508 0.153677 8.76926 0.0439075 8.50552C-0.065862 8.24179 -2.8871e-07 7.9341 0.197585 7.73629L2.85401 5.07695C3.05159 4.87915 3.05159 4.87915 4.65423 4.87915C5.3348 4.87915 6.01537 4.87915 6.01537 4.87915C6.34468 4.87915 6.63008 5.14289 6.63008 5.49453C6.63008 5.82421 6.36663 6.10992 6.01537 6.10992C5.0494 6.10992 3.97365 6.1319 3.51262 6.1319L1.90999 7.73629H4.30296C4.63227 7.73629 4.91767 8.00003 4.91767 8.35168C4.93963 8.68135 4.65423 8.94508 4.32492 8.94508Z" fill="#000248"/>
        </g>
        <defs>
        <clipPath id="clip0_179_2065">
        <rect width="20" height="20" fill="white"/>
        </clipPath>
        </defs>
    </symbol>

<!-- NFT icons -->

    <symbol id="search" viewBox="0 0 16 15" xmlns="http://www.w3.org/2000/svg">
        <path d="M7.34752 0C3.63851 0 0.617188 3.02132 0.617188 6.73034C0.617188 10.4393 3.63851 13.4665 7.34752 13.4665C8.93174 13.4665 10.3887 12.9113 11.5403 11.9895L14.3437 14.7915C14.4852 14.9271 14.6742 15.002 14.8701 15C15.0661 14.998 15.2535 14.9193 15.3922 14.7808C15.5308 14.6423 15.6098 14.4551 15.612 14.2591C15.6143 14.0632 15.5398 13.8741 15.4043 13.7324L12.6009 10.929C13.5234 9.77569 14.0793 8.3164 14.0793 6.73034C14.0793 3.02132 11.0565 0 7.34752 0ZM7.34752 1.49598C10.248 1.49598 12.5819 3.82981 12.5819 6.73034C12.5819 9.63087 10.248 11.9706 7.34752 11.9706C4.44698 11.9706 2.11314 9.63087 2.11314 6.73034C2.11314 3.82981 4.44698 1.49598 7.34752 1.49598Z" />
    </symbol>


    <symbol id="successful" width="14" height="14" viewBox="0 0 14 14" fill="none" xmlns="http://www.w3.org/2000/svg">
        <path d="M6.91675 13.4166C10.5066 13.4166 13.4167 10.5065 13.4167 6.91663C13.4167 3.32677 10.5066 0.416626 6.91675 0.416626C3.3269 0.416626 0.416748 3.32677 0.416748 6.91663C0.416748 10.5065 3.3269 13.4166 6.91675 13.4166Z" fill="#54BA4A"/>
        <path d="M6.02714 9.20998C5.84048 9.21286 5.66025 9.14382 5.52586 9.01795L3.91614 7.48175C3.78226 7.35352 3.7063 7.17888 3.70497 6.99625C3.70365 6.81362 3.77707 6.63796 3.90908 6.50791C4.04109 6.37786 4.22088 6.30408 4.40889 6.30279C4.5969 6.30151 4.77774 6.37282 4.91163 6.50105L6.02714 7.56405L8.92182 4.82084C8.98811 4.75734 9.06663 4.70715 9.15288 4.67314C9.23914 4.63912 9.33146 4.62194 9.42455 4.62258C9.51765 4.62321 9.6097 4.64165 9.69546 4.67685C9.78122 4.71204 9.859 4.7633 9.92436 4.82769C9.98973 4.89209 10.0414 4.96836 10.0764 5.05215C10.1114 5.13594 10.1291 5.22561 10.1285 5.31603C10.1278 5.40646 10.1088 5.49588 10.0726 5.57919C10.0364 5.66249 9.9836 5.73804 9.9173 5.80154L6.52135 9.04539C6.38434 9.15962 6.20748 9.21852 6.02714 9.20998Z" fill="#EDEBEA"/>
    </symbol>


    <symbol id="etherium" width="14" height="21" viewBox="0 0 14 21" fill="none" xmlns="http://www.w3.org/2000/svg">
        <path d="M7.30707 16.0099L13.1351 13.1644L7.31235 21L6.43757 19.8227V15.584L7.30707 16.0099Z" fill="#7878C1"/>
        <path d="M7.31233 0L14.0001 12.0001H0.624381L7.31233 0Z" fill="#7878C1"/>
        <path d="M0.624427 12.0179L7.31238 0V12.0179H0.624427Z" fill="#9191D2"/>
        <path d="M9.33557 6.66492H8.02307V7.97742H9.33557V6.66492Z" fill="white"/>
        <path d="M7.31236 8.74126L7.33864 8.72876L13.9995 12.01H13.9936L7.33271 15.2913L7.30643 15.2788L6.43758 14.8535V9.16968L7.31236 8.74126Z" fill="#322F72"/>
        <path d="M9.33557 4.18225H8.02307V5.49475H9.33557V4.18225Z" fill="white"/>
        <path d="M7.30709 16.0098L7.31238 20.9999L1.48544 13.1591L7.30709 16.0098Z" fill="#9191D2"/>
        <path d="M0.636894 12.01L7.31235 8.74126L7.33862 8.72876L7.3327 15.2913L7.30642 15.2788L0.630966 12.01H0.636894Z" fill="#413E83"/>
    </symbol>

</svg>