<svg>
    <symbol id="envelope" viewBox="0 0 16 16" xmlns="http://www.w3.org/2000/svg">
        <g clip-path="url(#clip0_1_174)">
            <path d="M1.99998 2H14C14.1768 2 14.3464 2.07024 14.4714 2.19526C14.5964 2.32029 14.6666 2.48986 14.6666 2.66667V13.3333C14.6666 13.5101 14.5964 13.6797 14.4714 13.8047C14.3464 13.9298 14.1768 14 14 14H1.99998C1.82317 14 1.6536 13.9298 1.52858 13.8047C1.40355 13.6797 1.33331 13.5101 1.33331 13.3333V2.66667C1.33331 2.48986 1.40355 2.32029 1.52858 2.19526C1.6536 2.07024 1.82317 2 1.99998 2ZM8.03998 7.78867L3.76531 4.15867L2.90198 5.17467L8.04865 9.54467L13.1026 5.17133L12.2306 4.16267L8.04065 7.78867H8.03998Z"/>
        </g>
        <defs>
            <clipPath id="clip0_1_174">
                <rect width="16" height="16" fill="white"/>
            </clipPath>
        </defs>
    </symbol>

    <symbol id="arrow-right" viewBox="0 0 12 12" xmlns="http://www.w3.org/2000/svg">
        <path d="M0.770095 6.79025H9.37205L5.61399 10.6467C5.31365 10.9549 5.31365 11.4607 5.61399 11.7689C5.91433 12.077 6.39949 12.077 6.69982 11.7689L11.7747 6.56108C12.0751 6.25288 12.0751 5.75502 11.7747 5.44682L6.70752 0.231149C6.40719 -0.0770497 5.92203 -0.0770497 5.62169 0.231149C5.32135 0.539348 5.32135 1.03721 5.62169 1.34541L9.37205 5.20975H0.770095C0.346543 5.20975 0 5.56536 0 6C0 6.43464 0.346543 6.79025 0.770095 6.79025Z" />
    </symbol>

    <symbol id="right" viewBox="0 0 24 24" fill="none" xmlns="http://www.w3.org/2000/svg">
        <circle cx="12" cy="12" r="12" fill="#54BA4A"/>
        <path d="M6 13.0712L7.51436 11.9706C7.51436 11.9706 9.91847 14.5546 9.90669 14.7281C9.90669 14.7281 14.0078 8.2621 18.6923 7V7.28113C18.6923 7.28113 11.586 11.5699 10.0599 18L6 13.0712Z" fill="white" stroke="white"/>
    </symbol>

    <symbol id="interface" viewBox="0 0 18 18" fill="none" xmlns="http://www.w3.org/2000/svg">
        <path d="M16.418 9.52734C15.8914 9.52734 15.4274 9.78854 15.1397 10.1853L11.6201 9.16438C11.6235 9.10904 11.6367 9.0563 11.6367 9C11.6367 8.46346 11.4738 7.96509 11.1974 7.54829L14.8258 3.91992C15.1394 4.10518 15.5006 4.21875 15.8906 4.21875C17.0539 4.21875 18 3.27269 18 2.10938C18 0.94606 17.0539 0 15.8906 0C14.7273 0 13.7812 0.94606 13.7812 2.10938C13.7812 2.49939 13.8948 2.86057 14.0801 3.17422L10.4517 6.8026C10.0349 6.52615 9.53654 6.36328 9 6.36328C8.46346 6.36328 7.96509 6.52615 7.54829 6.8026L4.09529 3.34959C4.19403 3.14333 4.25391 2.91536 4.25391 2.67188C4.25391 1.79956 3.54419 1.08984 2.67188 1.08984C1.79956 1.08984 1.08984 1.79956 1.08984 2.67188C1.08984 3.54419 1.79956 4.25391 2.67188 4.25391C2.91536 4.25391 3.14333 4.19403 3.34959 4.09529L6.8026 7.54829C6.52615 7.96509 6.36328 8.46346 6.36328 9C6.36328 9.18265 6.38223 9.3609 6.4178 9.53311L2.73999 11.0943C2.45078 10.7814 2.04071 10.582 1.58203 10.582C0.709717 10.582 0 11.2917 0 12.1641C0 13.0364 0.709717 13.7461 1.58203 13.7461C2.45435 13.7461 3.16406 13.0364 3.16406 12.1641C3.16406 12.1297 3.1561 12.0977 3.15404 12.0639L6.83693 10.5006C7.3136 11.1855 8.10406 11.6367 9 11.6367C9.00851 11.6367 9.01648 11.6342 9.02499 11.6342L9.53929 14.0681C8.90538 14.4323 8.47266 15.1084 8.47266 15.8906C8.47266 17.0539 9.41872 18 10.582 18C11.7453 18 12.6914 17.0539 12.6914 15.8906C12.6914 14.7273 11.7453 13.7812 10.582 13.7812C10.5734 13.7812 10.5654 13.7837 10.5568 13.7839L10.0559 11.4125C10.6165 11.166 11.0678 10.7268 11.3437 10.1828L14.8449 11.1982C14.892 12.0287 15.576 12.6914 16.418 12.6914C17.2903 12.6914 18 11.9817 18 11.1094C18 10.2371 17.2903 9.52734 16.418 9.52734Z" fill="#7366FF"/>
    </symbol>

    <symbol id="lock" viewBox="0 0 13 18" fill="none" xmlns="http://www.w3.org/2000/svg">
        <path d="M1.22471 7.34851H3.25486V5.15779C3.25486 3.43317 4.71067 2.03015 6.50006 2.03015C8.28944 2.03015 9.74525 3.43324 9.74525 5.15779V7.34851H11.7754V5.15779C11.7754 2.31374 9.40888 0 6.50006 0C3.59123 0 1.22471 2.3138 1.22471 5.15779V7.34851Z" fill="#7366FF"/>
        <path d="M1.26884 17.4484H11.7312C12.4319 17.4484 13 16.8803 13 16.1795V7.82146C13 7.12067 12.4319 6.55261 11.7312 6.55261H1.26884C0.568061 6.55261 0 7.12067 0 7.82146V16.1795C0 16.8803 0.568061 17.4484 1.26884 17.4484Z" fill="#7366FF"/>
        <path d="M5.13556 11.0758C5.13556 10.3237 5.74638 9.71387 6.49988 9.71387C7.25339 9.71387 7.86421 10.3236 7.86421 11.0758C7.86421 11.521 7.64933 11.9151 7.31848 12.1636V14.1987H5.68123V12.1636C5.3505 11.9151 5.13556 11.521 5.13556 11.0758Z" fill="white"/>
    </symbol>

    <symbol id="map-pin" viewBox="0 0 15 21" xmlns="http://www.w3.org/2000/svg">
        <path d="M7.17969 0.288818C3.22081 0.288818 0 3.50963 0 7.46851C0 8.80608 0.370512 10.1114 1.07173 11.2439L6.771 20.4282C6.88017 20.6041 7.07251 20.711 7.27937 20.711C7.28096 20.711 7.28252 20.711 7.28411 20.711C7.49276 20.7094 7.6855 20.5992 7.79267 20.4202L13.3467 11.1469C14.0092 10.0384 14.3594 8.76639 14.3594 7.46851C14.3594 3.50963 11.1386 0.288818 7.17969 0.288818ZM12.3198 10.5326L7.27031 18.9634L2.08877 10.6134C1.5051 9.67084 1.18864 8.58335 1.18864 7.46851C1.18864 4.16944 3.88062 1.47746 7.17969 1.47746C10.4788 1.47746 13.1667 4.16944 13.1667 7.46851C13.1667 8.55029 12.8711 9.60997 12.3198 10.5326Z" />
        <path d="M7.17969 3.87866C5.20025 3.87866 3.58984 5.48907 3.58984 7.46851C3.58984 9.4353 5.17404 11.0583 7.17969 11.0583C9.21006 11.0583 10.7695 9.41368 10.7695 7.46851C10.7695 5.48907 9.15913 3.87866 7.17969 3.87866ZM7.17969 9.86971C5.85316 9.86971 4.77848 8.79144 4.77848 7.46851C4.77848 6.14888 5.86006 5.0673 7.17969 5.0673C8.49931 5.0673 9.57691 6.14888 9.57691 7.46851C9.57691 8.77214 8.52724 9.86971 7.17969 9.86971Z" />
    </symbol>

    <symbol id="inbox" viewBox="0 0 19 14" xmlns="http://www.w3.org/2000/svg">
        <path d="M17.3301 0.000488281H1.66992C0.747271 0.000488281 0 0.752398 0 1.67041V11.6899C0 12.6134 0.752764 13.3599 1.66992 13.3599H17.3301C18.245 13.3599 19 12.6166 19 11.6899V1.67041C19 0.754031 18.2557 0.000488281 17.3301 0.000488281ZM17.0962 1.11377C16.755 1.45313 10.8835 7.29371 10.6808 7.49536C10.3654 7.81079 9.94605 7.98446 9.5 7.98446C9.05395 7.98446 8.63461 7.81075 8.31814 7.49432C8.1818 7.35868 2.37511 1.58261 1.90379 1.11377H17.0962ZM1.11328 11.4634V1.89771L5.92407 6.68314L1.11328 11.4634ZM1.90449 12.2466L6.71338 7.46827L7.53198 8.28256C8.05767 8.80825 8.75659 9.09774 9.5 9.09774C10.2434 9.09774 10.9423 8.80825 11.467 8.2836L12.2866 7.46827L17.0955 12.2466H1.90449ZM17.8867 11.4634L13.0759 6.68314L17.8867 1.89771V11.4634Z" />
    </symbol>

    <symbol id="round-shape" viewBox="0 0 81 93" xmlns="http://www.w3.org/2000/svg">
        <path d="M46.7117 92.7224C48.4003 92.7224 50.089 92.6296 51.7776 92.444L51.6106 90.9595C38.0273 92.4255 24.7409 87.7678 15.1472 78.1741C5.55358 68.5805 0.89592 55.2941 2.36187 41.7108C4.58864 21.1318 21.141 4.598 41.72 2.37123L41.553 0.886719C31.2171 2.0001 21.4564 6.67632 14.071 14.0803C6.68552 21.4658 1.99075 31.2264 0.877361 41.5624C-0.625706 55.591 4.1804 69.3413 14.0895 79.2504C22.811 87.9534 34.4645 92.7224 46.7117 92.7224Z" />
        <path d="M46.656 89.9574C59.831 89.9574 72.1525 84.0379 80.4843 73.702L79.3153 72.7556C71.2803 82.739 59.3671 88.4544 46.656 88.4544C33.9449 88.4544 22.0316 82.739 13.9967 72.7556C1.82372 57.6322 1.82372 35.6985 13.9967 20.575L12.8277 19.6287C6.70406 27.2368 3.32681 36.8304 3.32681 46.6653C3.32681 56.4817 6.70406 66.0939 12.8277 73.702C21.1595 84.0379 33.4809 89.9574 46.656 89.9574Z" />
    </symbol>

    <symbol id="line-shape" viewBox="0 0 162 49" xmlns="http://www.w3.org/2000/svg">
        <path d="M68.2531 48.1243H162V46.6212H68.2531C55.4306 46.6212 43.3875 41.6296 34.3134 32.574L1.98816 0.248779L0.930435 1.3065L33.2557 33.6317C37.8762 38.2523 43.2761 41.8522 49.307 44.3574C55.3564 46.8439 61.7212 48.1243 68.2531 48.1243Z" />
    </symbol>

    <symbol id="user" viewBox="0 0 22 24" xmlns="http://www.w3.org/2000/svg">
        <path d="M11.0016 12.4626C14.4302 12.4626 17.2329 9.6599 17.2329 6.2313C17.2329 2.80271 14.4302 0 11.0016 0C7.57304 0 4.77039 2.80271 4.77039 6.2313C4.77039 9.6599 7.57309 12.4626 11.0016 12.4626Z" />
        <path d="M21.6955 16.9965C21.5323 16.5883 21.3146 16.2074 21.0697 15.8536C19.818 14.0032 17.8861 12.7788 15.7092 12.4794C15.4371 12.4523 15.1378 12.5066 14.9201 12.6699C13.7772 13.5135 12.4167 13.9488 11.0017 13.9488C9.58669 13.9488 8.22616 13.5135 7.0833 12.6699C6.86559 12.5066 6.56627 12.425 6.29418 12.4794C4.11731 12.7788 2.15814 14.0032 0.933663 15.8536C0.688768 16.2074 0.471059 16.6155 0.30783 16.9965C0.226216 17.1598 0.253403 17.3502 0.335018 17.5135C0.552726 17.8944 0.824809 18.2754 1.06971 18.6019C1.45064 19.119 1.85882 19.5815 2.32142 20.0169C2.70236 20.3978 3.13773 20.7516 3.57314 21.1053C5.72278 22.7108 8.30783 23.5543 10.9745 23.5543C13.6412 23.5543 16.2262 22.7107 18.3759 21.1053C18.8112 20.7788 19.2466 20.3978 19.6276 20.0169C20.0629 19.5815 20.4983 19.1189 20.8793 18.6019C21.1514 18.2482 21.3963 17.8944 21.614 17.5135C21.75 17.3502 21.7772 17.1597 21.6955 16.9965Z"/>
    </symbol>

    <symbol id="download" viewBox="0 0 27 27" xmlns="http://www.w3.org/2000/svg">
        <path d="M27 25.3125C27 26.2445 26.2445 27 25.3125 27H1.6875C0.755525 27 0 26.2445 0 25.3125C0 24.3805 0.755525 23.625 1.6875 23.625H25.3125C26.2445 23.625 27 24.3805 27 25.3125ZM12.3068 19.9667C12.6363 20.2962 13.0681 20.461 13.5 20.461C13.9318 20.461 14.3638 20.2962 14.6932 19.9667L20.6721 13.9878C21.3312 13.3288 21.3312 12.2604 20.6721 11.6014C20.0131 10.9423 18.9447 10.9423 18.2856 11.6014L15.1875 14.6995V1.6875C15.1875 0.755525 14.432 0 13.5 0C12.568 0 11.8125 0.755525 11.8125 1.6875V14.6995L8.71436 11.6014C8.05533 10.9423 6.98688 10.9423 6.32786 11.6014C5.66884 12.2604 5.66884 13.3288 6.32786 13.9878L12.3068 19.9667Z" />
    </symbol>


    <symbol id="customers" viewBox="0 0 27 27" xmlns="http://www.w3.org/2000/svg">
        <g clip-path="url(#clip0_179_734)">
            <path d="M17.4278 14.291C17.0603 16.0941 15.4098 17.4551 13.5 17.4551C11.5902 17.4551 9.99249 16.0941 9.62498 14.291H8.04285C8.43081 16.9673 10.718 19.0371 13.5 19.0371C16.282 19.0371 18.6219 16.9673 19.0099 14.291H17.4278Z"/>
            <path d="M20.5919 14.291C20.1926 17.8408 17.1549 20.6191 13.5 20.6191C9.84514 20.6191 6.86016 17.8408 6.4608 14.291H0V15.082C0 15.4227 0.218637 15.7255 0.541529 15.8329L3.79619 16.895C3.93293 17.2828 4.07737 17.6359 4.23188 17.9618L2.73016 20.9791C2.57876 21.2834 2.63899 21.6504 2.87924 21.8906L5.10938 24.1208C5.35117 24.3625 5.7173 24.4197 6.02089 24.2698L9.0382 22.7681C9.3642 22.9226 9.71721 23.0671 10.105 23.2038L11.1671 26.4585C11.2745 26.7814 11.5773 27 11.918 27H15.1348C15.4754 27 15.7782 26.7814 15.8856 26.4585L16.9478 23.2038C17.3356 23.0671 17.6886 22.9226 18.0145 22.7681L21.0318 24.2698C21.3354 24.4204 21.7024 24.3625 21.9434 24.1208L24.1735 21.8906C24.4137 21.6504 24.474 21.2834 24.3226 20.9791L22.8209 17.9618C22.9754 17.6358 23.1198 17.2828 23.2565 16.895L26.4585 15.8329C26.7814 15.7255 27 15.4227 27 15.082V14.291H20.5919Z" />
            <path d="M11.2726 14.291C11.6003 15.2098 12.4701 15.873 13.5 15.873C14.5299 15.873 15.4524 15.2098 15.7801 14.291H11.2726Z" />
            <path d="M13.5 0C11.755 0 10.3359 1.41903 10.3359 3.16406C10.3359 4.9091 11.755 6.32812 13.5 6.32812C15.245 6.32812 16.7168 4.9091 16.7168 3.16406C16.7168 1.41903 15.245 0 13.5 0Z" />
            <path d="M21.4629 0C19.7179 0 18.2988 1.41903 18.2988 3.16406C18.2988 4.9091 19.7179 6.32812 21.4629 6.32812C23.2079 6.32812 24.627 4.9091 24.627 3.16406C24.627 1.41903 23.2079 0 21.4629 0Z" />
            <path d="M5.58984 0C3.84481 0 2.42578 1.41903 2.42578 3.16406C2.42578 4.9091 3.84481 6.32812 5.58984 6.32812C7.33488 6.32812 8.75391 4.9091 8.75391 3.16406C8.75391 1.41903 7.33488 0 5.58984 0Z" />
            <path d="M24.1611 7.0603C23.3938 7.59339 22.466 7.91022 21.4629 7.91022C20.464 7.91022 19.539 7.59677 18.7736 7.06774C18.4267 7.26692 18.0932 7.49088 17.7913 7.76093C19.3296 8.91086 20.3977 10.7068 20.6236 12.7091H27V11.918C27 9.84964 25.8461 8.01084 24.1611 7.0603Z" />
            <path d="M13.5 7.91016C10.7152 7.91016 8.40398 10.0293 8.01929 12.709H19.0334C18.6488 10.0293 16.2848 7.91016 13.5 7.91016Z" />
            <path d="M8.27914 7.06774C7.5137 7.59677 6.58874 7.91022 5.58984 7.91022C4.58678 7.91022 3.65892 7.59339 2.89169 7.0603C1.20662 8.01084 0 9.84964 0 11.918V12.7091H6.42916C6.65508 10.7068 7.72311 8.91086 9.26142 7.76093C8.95946 7.49088 8.62608 7.26692 8.27914 7.06774Z" />
        </g>
        <defs>
        <clipPath id="clip0_179_734">
        <rect width="27" height="27" fill="white"/>
        </clipPath>
        </defs>
    </symbol>

    <symbol id="code" viewBox="0 0 27 21" xmlns="http://www.w3.org/2000/svg">
        <path d="M23.1789 0.622803H3.82113C1.71439 0.622803 0 2.3372 0 4.44446V16.5554C0 18.6627 1.71439 20.3771 3.82113 20.3771H23.1789C25.2856 20.3771 27 18.6627 27 16.5554V4.44446C27 2.3372 25.2856 0.622803 23.1789 0.622803ZM9.79857 6.70255L5.77863 10.7225L9.3535 14.2974C9.66252 14.6064 9.66252 15.1074 9.3535 15.4159C9.045 15.7249 8.54402 15.7249 8.235 15.4159L4.10063 11.2815C3.7916 10.9725 3.7916 10.472 4.10063 10.163L8.67955 5.58405C8.98857 5.27503 9.48955 5.27503 9.79857 5.58405C10.1071 5.89255 10.1071 6.39353 9.79857 6.70255ZM16.3234 4.84155L12.1405 16.6852C11.995 17.0975 11.543 17.3132 11.1312 17.1677C10.7193 17.0221 10.5031 16.5702 10.6487 16.1583L14.8315 4.31474C14.9771 3.90288 15.4285 3.68667 15.8409 3.83222C16.2527 3.97776 16.4689 4.4297 16.3234 4.84155ZM22.8994 10.8369L18.3204 15.4159C18.0114 15.7249 17.5104 15.7249 17.2014 15.4159C16.8929 15.1074 16.8929 14.6064 17.2014 14.2974L21.2214 10.2774L17.6465 6.70255C17.3375 6.39353 17.3375 5.89255 17.6465 5.58405C17.955 5.27503 18.456 5.27503 18.765 5.58405L22.8994 9.71843C23.2084 10.0275 23.2084 10.5279 22.8994 10.8369Z" />
    </symbol>

    
    <symbol id="hand-shake" viewBox="0 0 25 25" xmlns="http://www.w3.org/2000/svg">
        <g clip-path="url(#clip0_179_891)">
        <path d="M22.7823 11.8803L25 9.6626L17.7287 2.39136L15.7253 4.39472C16.0554 4.56409 16.3629 4.78175 16.6385 5.04434L17.1323 5.51481L16.1208 6.57649L15.627 6.10602C15.1649 5.66571 14.5566 5.42663 13.9207 5.43519C13.2825 5.44291 12.6825 5.69567 12.2312 6.14698L9.57027 8.80788C9.11069 9.26745 9.11069 10.0153 9.57027 10.4748C10.0298 10.9344 10.7777 10.9344 11.2372 10.4748L14.0625 7.64956L21.4097 14.9533L21.787 14.576C22.5033 13.8596 22.861 12.8754 22.7823 11.8803Z" />
        <path d="M19.971 15.5948L14.0625 9.72355L12.2741 11.5119C11.7585 12.0275 11.081 12.2853 10.4037 12.2854C9.72626 12.2854 9.04902 12.0276 8.53333 11.5119C7.50201 10.4806 7.50201 8.8025 8.53333 7.77113L11.1942 5.11023C11.4707 4.83371 11.7823 4.60412 12.1186 4.42473C10.9009 3.50118 9.59218 3.58169 8.74777 3.86935L7.27129 2.39282L0 9.66411L2.28804 11.9522C2.20934 12.9472 2.56705 13.9315 3.28334 14.6477L10.848 22.2124C11.3768 22.7412 12.2342 22.7412 12.7629 22.2124C13.2917 21.6837 13.2917 20.8264 12.763 20.2976L9.40878 16.9427L10.4457 15.9058C10.4457 15.9058 14.351 19.8079 14.4636 19.9205C14.995 20.4519 15.8597 20.4519 16.3911 19.9205C16.9078 19.4039 16.9272 18.5877 16.4415 18.0476L12.5914 14.1975L13.6283 13.1606L18.0199 17.5522C18.5595 18.0918 19.4344 18.0918 19.9741 17.5522C20.5149 17.0113 20.5136 16.134 19.971 15.5948Z"/>
        </g>
        <defs>
        <clipPath id="clip0_179_891">
        <rect width="25" height="25" fill="white"/>
        </clipPath>
        </defs>
    </symbol>

    <symbol id="calendar" viewBox="0 0 20 20" xmlns="http://www.w3.org/2000/svg">
        <path d="M16.3787 1.875H15.625V1.25C15.625 1.08424 15.5592 0.925268 15.4419 0.808058C15.3247 0.690848 15.1658 0.625 15 0.625C14.8342 0.625 14.6753 0.690848 14.5581 0.808058C14.4408 0.925268 14.375 1.08424 14.375 1.25V1.875H10.625V1.25C10.625 1.08424 10.5592 0.925268 10.4419 0.808058C10.3247 0.690848 10.1658 0.625 10 0.625C9.83424 0.625 9.67527 0.690848 9.55806 0.808058C9.44085 0.925268 9.375 1.08424 9.375 1.25V1.875H5.625V1.25C5.625 1.08424 5.55915 0.925268 5.44194 0.808058C5.32473 0.690848 5.16576 0.625 5 0.625C4.83424 0.625 4.67527 0.690848 4.55806 0.808058C4.44085 0.925268 4.375 1.08424 4.375 1.25V1.875H3.62125C2.99266 1.87599 2.3901 2.12614 1.94562 2.57062C1.50114 3.0151 1.25099 3.61766 1.25 4.24625V17.0037C1.25099 17.6323 1.50114 18.2349 1.94562 18.6794C2.3901 19.1239 2.99266 19.374 3.62125 19.375H16.3787C17.0073 19.374 17.6099 19.1239 18.0544 18.6794C18.4989 18.2349 18.749 17.6323 18.75 17.0037V4.24625C18.749 3.61766 18.4989 3.0151 18.0544 2.57062C17.6099 2.12614 17.0073 1.87599 16.3787 1.875ZM8.56625 12.9419L6.69125 14.8169C6.57405 14.934 6.4151 14.9999 6.24937 14.9999C6.08365 14.9999 5.9247 14.934 5.8075 14.8169L4.5575 13.5669C4.49781 13.5092 4.45019 13.4403 4.41744 13.364C4.38468 13.2878 4.36744 13.2057 4.36672 13.1228C4.366 13.0398 4.38181 12.9575 4.41324 12.8807C4.44466 12.8038 4.49107 12.7341 4.54975 12.6754C4.60844 12.6167 4.67822 12.5703 4.75503 12.5389C4.83184 12.5074 4.91414 12.4916 4.99713 12.4923C5.08011 12.4931 5.16213 12.5103 5.23838 12.5431C5.31463 12.5758 5.3836 12.6234 5.44125 12.6831L6.25 13.4913L7.68313 12.0581C7.801 11.9443 7.95888 11.8813 8.12275 11.8827C8.28662 11.8841 8.44338 11.9499 8.55926 12.0657C8.67514 12.1816 8.74087 12.3384 8.7423 12.5022C8.74372 12.6661 8.6801 12.824 8.56625 12.9419ZM8.56625 7.31687L6.69125 9.19187C6.57405 9.30904 6.4151 9.37487 6.24937 9.37487C6.08365 9.37487 5.9247 9.30904 5.8075 9.19187L4.5575 7.94187C4.49781 7.88422 4.45019 7.81526 4.41744 7.739C4.38468 7.66275 4.36744 7.58074 4.36672 7.49775C4.366 7.41476 4.38181 7.33246 4.41324 7.25565C4.44466 7.17884 4.49107 7.10906 4.54975 7.05038C4.60844 6.9917 4.67822 6.94529 4.75503 6.91386C4.83184 6.88244 4.91414 6.86662 4.99713 6.86734C5.08011 6.86806 5.16213 6.88531 5.23838 6.91806C5.31463 6.95082 5.3836 6.99843 5.44125 7.05813L6.25 7.86625L7.68313 6.43313C7.801 6.31928 7.95888 6.25628 8.12275 6.2577C8.28662 6.25913 8.44338 6.32486 8.55926 6.44074C8.67514 6.55662 8.74087 6.71338 8.7423 6.87725C8.74372 7.04112 8.6801 7.199 8.56625 7.31687ZM15 14.375H10.625C10.4592 14.375 10.3003 14.3092 10.1831 14.1919C10.0658 14.0747 10 13.9158 10 13.75C10 13.5842 10.0658 13.4253 10.1831 13.3081C10.3003 13.1908 10.4592 13.125 10.625 13.125H15C15.1658 13.125 15.3247 13.1908 15.4419 13.3081C15.5592 13.4253 15.625 13.5842 15.625 13.75C15.625 13.9158 15.5592 14.0747 15.4419 14.1919C15.3247 14.3092 15.1658 14.375 15 14.375ZM15 8.75H10.625C10.4592 8.75 10.3003 8.68415 10.1831 8.56694C10.0658 8.44973 10 8.29076 10 8.125C10 7.95924 10.0658 7.80027 10.1831 7.68306C10.3003 7.56585 10.4592 7.5 10.625 7.5H15C15.1658 7.5 15.3247 7.56585 15.4419 7.68306C15.5592 7.80027 15.625 7.95924 15.625 8.125C15.625 8.29076 15.5592 8.44973 15.4419 8.56694C15.3247 8.68415 15.1658 8.75 15 8.75Z" />
    </symbol>

    <symbol id="hand-dollar-sign" viewBox="0 0 21 21" fill="none" xmlns="http://www.w3.org/2000/svg">
        <path d="M18.7338 12.8893L16.4067 15.9325C15.9411 16.5413 15.2184 16.8985 14.4519 16.8985H10.1309C9.79109 16.8985 9.51562 16.623 9.51562 16.2833C9.51562 15.9435 9.79109 15.668 10.1309 15.668H13.876C14.6809 15.668 15.355 15.0093 15.3396 14.2045C15.3247 13.4246 14.6878 12.7969 13.9043 12.7969H9.59766C8.36116 11.608 6.45303 11.4689 5.05714 12.466L4.59375 12.7969V19.7696H8.69531H9.51562H15.2933C16.5493 19.7696 17.7192 19.1309 18.3984 18.0743L20.7994 14.3394C20.9304 14.1357 21 13.8987 21 13.6565C21 12.4487 19.4675 11.9299 18.7338 12.8893Z" fill="#FF9F0E"/>
        <path d="M2.74805 11.5664H0.615234C0.275461 11.5664 0 11.8419 0 12.1816V20.3848C0 20.7245 0.275461 21 0.615234 21H2.74805C3.08782 21 3.36328 20.7245 3.36328 20.3848V12.1816C3.36328 11.8419 3.08782 11.5664 2.74805 11.5664Z" fill="#FF9F0E"/>
        <path d="M11.7432 3.40039C11.618 3.49637 11.549 3.64169 11.5253 3.76773C11.4925 3.94159 11.534 4.10311 11.631 4.17915C11.6651 4.20594 11.7028 4.23227 11.7432 4.25815V3.40039Z" fill="#FF9F0E"/>
        <path d="M12.1816 10.2539C15.0086 10.2539 17.3086 7.95396 17.3086 5.12695C17.3086 2.29995 15.0086 0 12.1816 0C9.35464 0 7.05469 2.29995 7.05469 5.12695C7.05469 7.95396 9.35464 10.2539 12.1816 10.2539ZM10.6297 6.80322C10.7536 6.61373 11.0079 6.56041 11.1974 6.68452C11.419 6.82943 11.5578 6.89227 11.7432 6.91831V5.18618C11.4812 5.06613 11.2854 4.95059 11.1247 4.82454C10.7844 4.55757 10.629 4.09443 10.7191 3.61573C10.8174 3.0941 11.1805 2.67906 11.6667 2.53263C11.6924 2.52488 11.7179 2.51779 11.7432 2.5111V2.25586C11.7432 2.02937 11.9269 1.8457 12.1533 1.8457C12.3798 1.8457 12.5635 2.02937 12.5635 2.25586V2.46615C12.9617 2.53509 13.2432 2.73115 13.3795 2.88762C13.5283 3.05841 13.5104 3.31751 13.3396 3.46627C13.1697 3.61426 12.9125 3.59744 12.7633 3.42915C12.754 3.41968 12.6888 3.35692 12.5635 3.3107V4.636C12.6363 4.66303 12.7091 4.68923 12.7805 4.7145C13.5014 4.96937 13.9025 5.63678 13.7783 6.37526C13.6818 6.94928 13.245 7.53141 12.5635 7.70429V7.99805C12.5635 8.22453 12.3798 8.4082 12.1533 8.4082C11.9269 8.4082 11.7432 8.22453 11.7432 7.99805V7.74367C11.412 7.71504 11.1375 7.62558 10.7483 7.371C10.5588 7.24697 10.5057 6.99279 10.6297 6.80322Z" fill="#FF9F0E"/>
        <path d="M12.9694 6.23931C12.9963 6.07898 13.0073 5.69692 12.5635 5.51001V6.82747C12.7942 6.69532 12.932 6.46161 12.9694 6.23931Z" fill="#FF9F0E"/>
    </symbol>

    <symbol id="chat" viewBox="0 0 20 20" xmlns="http://www.w3.org/2000/svg">
        <g clip-path="url(#clip0_179_925)">
        <path d="M8.24203 6.05469C3.71887 6.05469 4.11365e-05 9.16512 4.11365e-05 12.9885C4.11365e-05 14.5168 0.592854 16.0701 1.68 17.2739L0.144807 19.0283C-0.00624793 19.2011 -0.0428886 19.4466 0.0526974 19.656C0.147697 19.8654 0.355979 19.9999 0.585979 19.9999H8.82797C12.1676 19.9999 16.484 17.1241 16.484 12.9885C16.484 9.16512 12.7652 6.05469 8.24203 6.05469ZM4.68742 14.0625C4.04141 14.0625 3.51559 13.5366 3.51559 12.8907C3.51559 12.2446 4.04145 11.7188 4.68742 11.7188C5.3334 11.7188 5.85926 12.2447 5.85926 12.8907C5.8593 13.5366 5.33344 14.0625 4.68742 14.0625ZM8.24203 14.0625C7.59602 14.0625 7.0702 13.5366 7.0702 12.8907C7.0702 12.2446 7.59606 11.7188 8.24203 11.7188C8.88801 11.7188 9.41387 12.2447 9.41387 12.8907C9.41387 13.5366 8.88805 14.0625 8.24203 14.0625ZM11.7966 14.0625C11.1506 14.0625 10.6248 13.5366 10.6248 12.8907C10.6248 12.2446 11.1507 11.7188 11.7966 11.7188C12.4426 11.7188 12.9685 12.2447 12.9685 12.8907C12.9685 13.5366 12.4427 14.0625 11.7966 14.0625Z" />
        <path d="M19.8582 11.923L18.4787 10.3134C19.4634 9.20224 19.9996 7.84724 19.9996 6.4454C19.9996 2.89153 16.5825 0.000244141 12.3826 0.000244141C8.58472 0.000244141 5.35812 2.367 4.78839 5.44751C5.84808 5.08743 7.03648 4.88274 8.24206 4.88274C13.373 4.88274 17.5886 8.46653 17.6502 12.8906H19.4137C19.9142 12.8906 20.183 12.3012 19.8582 11.923Z" />
        </g>
        <defs>
        <clipPath id="clip0_179_925">
        <rect width="20" height="20" fill="white"/>
        </clipPath>
        </defs>
    </symbol>

    <symbol id="dollar" viewBox="0 0 14 18" xmlns="http://www.w3.org/2000/svg">
        <path d="M10.1727 1.65819L9.40618 4.65632H4.28432L3.76194 3.41847C3.63705 3.04935 3.90956 2.66894 4.30136 2.66894H6.25467C6.33985 2.66894 6.41932 2.65191 6.49316 2.62348V3.08912C6.49316 3.37871 6.68624 3.6115 6.91903 3.6115C7.15182 3.6115 7.3449 3.37871 7.3449 3.08912V0.988132C7.39037 0.971097 7.43577 0.965454 7.48688 0.965454H9.61624C9.97967 0.965454 10.2522 1.30046 10.1727 1.65819Z" />
        <path d="M9.87334 5.50793H4.12408C3.83007 5.50793 3.59174 5.74627 3.59174 6.04027V6.67908C3.59174 6.97308 3.83007 7.21142 4.12408 7.21142H9.87334C10.1673 7.21142 10.4057 6.97308 10.4057 6.67908V6.04027C10.4057 5.74627 10.1673 5.50793 9.87334 5.50793Z"/>
        <path d="M13.8637 12.606C13.4605 10.4028 11.6549 8.79018 10.434 7.93274C10.2523 8.01791 10.0479 8.06338 9.83777 8.06338H4.15946C3.94934 8.06338 3.74498 8.01791 3.56324 7.93274C2.34237 8.79018 0.536673 10.4028 0.133532 12.606C-0.542166 16.3139 1.28626 18.0003 6.99858 18.0003C12.7734 18.0003 14.5394 16.3139 13.8637 12.606ZM6.93619 12.4356L7.2655 12.5151C7.88445 12.6741 8.31602 13.2249 8.31602 13.8666V14.0085C8.31602 14.5877 7.94125 15.076 7.42451 15.2578V15.6326C7.42451 15.8654 7.23143 16.0584 6.99864 16.0584C6.76585 16.0584 6.57277 15.8654 6.57277 15.6326V15.2578C6.05608 15.0761 5.68126 14.5877 5.68126 14.0085C5.68126 13.7701 5.86864 13.5827 6.10713 13.5827C6.33997 13.5827 6.533 13.7701 6.533 14.0085C6.533 14.2641 6.74311 14.4742 6.99864 14.4742C7.25416 14.4742 7.46428 14.2641 7.46428 14.0085V13.8666C7.46428 13.6167 7.29962 13.4066 7.06108 13.3442L6.73178 13.2647C6.11282 13.1057 5.68126 12.5549 5.68126 11.9133V11.7713C5.68126 11.1921 6.05602 10.7038 6.57277 10.522V10.1473C6.57277 9.91448 6.76585 9.7214 6.99864 9.7214C7.23143 9.7214 7.42451 9.91448 7.42451 10.1473V10.522C7.9412 10.7037 8.31602 11.1921 8.31602 11.7713C8.31602 12.0098 8.12864 12.1972 7.89015 12.1972C7.6573 12.1972 7.46428 12.0098 7.46428 11.7713C7.46428 11.5158 7.25416 11.3056 6.99864 11.3056C6.74311 11.3056 6.533 11.5158 6.533 11.7713V11.9133C6.533 12.1631 6.69765 12.3731 6.93619 12.4356Z" />
    </symbol>

    <symbol id="user-right" viewBox="0 0 17 17" xmlns="http://www.w3.org/2000/svg">
        <g clip-path="url(#clip0_179_1097)">
        <path d="M8.14583 8.67308C10.2974 8.67308 12.0417 6.92885 12.0417 4.77724C12.0417 2.62563 10.2974 0.881409 8.14583 0.881409C5.99422 0.881409 4.25 2.62563 4.25 4.77724C4.25 6.92885 5.99422 8.67308 8.14583 8.67308Z" />
        <path fill-rule="evenodd" clip-rule="evenodd" d="M9.15523 15.4107C8.41927 14.6202 7.96877 13.5605 7.96877 12.396C7.96877 11.2039 8.44123 10.1209 9.20906 9.32471C8.86198 9.2978 8.5071 9.28363 8.14585 9.28363C5.79277 9.28363 3.70956 9.87226 2.41615 10.7541C1.42944 11.427 0.885437 12.282 0.885437 13.1795V14.2065C0.885437 14.526 1.01223 14.8327 1.23819 15.058C1.46415 15.2839 1.77015 15.4107 2.0896 15.4107H9.15523Z" />
        <path fill-rule="evenodd" clip-rule="evenodd" d="M12.3959 8.67731C10.3431 8.67731 8.67712 10.3433 8.67712 12.3961C8.67712 14.4488 10.3431 16.1148 12.3959 16.1148C14.4486 16.1148 16.1146 14.4488 16.1146 12.3961C16.1146 10.3433 14.4486 8.67731 12.3959 8.67731ZM10.6845 13.0151L11.747 13.7235C11.9574 13.8637 12.2386 13.8361 12.4171 13.6569L14.188 11.8861C14.3955 11.6792 14.3955 11.3421 14.188 11.1352C13.9811 10.9277 13.644 10.9277 13.4371 11.1352L11.9737 12.5979L11.2739 12.1311C11.0302 11.9682 10.7001 12.0348 10.5372 12.2785C10.3743 12.5221 10.4409 12.8522 10.6845 13.0151Z" />
        </g>
        <defs>
        <clipPath id="clip0_179_1097">
        <rect width="17" height="17" fill="white" transform="translate(0 0.000244141)"/>
        </clipPath>
        </defs>
    </symbol>

    <symbol id="power" viewBox="0 0 17 17" xmlns="http://www.w3.org/2000/svg">
        <g clip-path="url(#clip0_179_1104)">
        <path d="M2.78249 8.50329C2.78249 6.10484 4.26712 4.04691 6.36549 3.19942L7.4362 1.04877C3.78619 1.5673 0.970032 4.71231 0.970032 8.50329C0.970032 11.9523 3.30114 14.867 6.47044 15.7551L6.67638 13.9226C4.41517 13.1597 2.78249 11.0186 2.78249 8.50329Z" />
        <path d="M16.03 8.50326C16.03 5.05489 13.6999 2.1408 10.5317 1.25201L10.3211 3.08316C12.5836 3.84536 14.2175 5.98706 14.2175 8.50326C14.2175 10.8877 12.7502 12.9356 10.6712 13.7922L9.5708 15.9568C13.2174 15.4353 16.03 12.2918 16.03 8.50326Z" />
        <path d="M12.8101 7.59076C12.8814 7.45035 12.8747 7.29612 12.7923 7.16189C12.7099 7.02759 12.5637 6.97407 12.4061 6.97407H8.96127L9.70285 0.52699C9.72811 0.308419 9.59263 0.0819746 9.38159 0.0193316C9.33803 0.00641782 9.29391 0.000244141 9.25036 0.000244141C9.08304 0.000244141 8.92491 0.0954548 8.84703 0.251836L4.18828 9.61295C4.11838 9.75336 4.12609 9.94033 4.20867 10.0738C4.2913 10.2072 4.43698 10.3158 4.59393 10.3158H7.99336L7.29647 16.5202C7.27211 16.7379 7.40697 16.9211 7.61688 16.9838C7.65998 16.9967 7.70365 17.0002 7.74675 17.0002C7.91372 17.0002 8.07186 16.9075 8.15076 16.7523L12.8101 7.59076Z" />
        </g>
        <defs>
        <clipPath id="clip0_179_1104">
        <rect width="17" height="17" fill="white" transform="translate(0 0.000244141)"/>
        </clipPath>
        </defs>
    </symbol>

    <symbol id="bulb" viewBox="0 0 22 21" fill="none" xmlns="http://www.w3.org/2000/svg">
        <path d="M5.18973 18.8719C5.04852 18.8719 4.90731 18.8117 4.78627 18.7113L2.36552 16.2821C2.14362 16.0612 2.14362 15.7199 2.36552 15.4991L3.85832 14.0134C3.95918 13.913 3.97936 13.7725 3.93901 13.632C2.84967 11.1224 3.45486 8.17115 5.45198 6.26389C7.99377 3.85471 12.109 3.87479 14.6307 6.30404C15.9015 7.54878 16.6278 9.19506 16.6278 10.9819C16.6479 12.7486 15.9621 14.435 14.6912 15.6798C12.7949 17.5669 9.95054 18.1291 7.46927 17.1052C7.34823 17.065 7.20702 17.0851 7.10616 17.1855L5.59319 18.6912C5.47215 18.8117 5.33094 18.8719 5.18973 18.8719ZM3.53555 15.9006L5.16956 17.5268L6.27907 16.4226C6.7027 16.001 7.32806 15.8805 7.87273 16.1014C9.93036 16.9647 12.2906 16.5029 13.8843 14.9169C14.9332 13.8729 15.4981 12.4876 15.4981 11.0019C15.4779 9.51628 14.8929 8.15108 13.8237 7.1071C11.7258 5.07938 8.31653 5.0593 6.19838 7.06695C4.5442 8.63291 4.03987 11.1023 4.94766 13.1903C5.18973 13.7323 5.06869 14.3748 4.62489 14.7964L3.53555 15.9006Z" fill="#000248"/>
        <path d="M3.81799 20.0765C3.67678 20.0765 3.53557 20.0162 3.41453 19.9159L1.09465 17.6071C0.872747 17.3862 0.872747 17.0449 1.09465 16.8241C1.31655 16.6032 1.65949 16.6032 1.88139 16.8241L4.22145 19.1529C4.44335 19.3738 4.44335 19.7151 4.22145 19.9359C4.10041 20.0363 3.9592 20.0765 3.81799 20.0765Z" fill="#000248"/>
        <path d="M2.50673 20.9999C2.36552 20.9999 2.22431 20.9397 2.10327 20.8393L0.166671 18.912C-0.0552314 18.6912 -0.0552314 18.3499 0.166671 18.129C0.388573 17.9082 0.731512 17.9082 0.953414 18.129L2.89001 20.0564C3.11192 20.2772 3.11192 20.6185 2.89001 20.8393C2.78915 20.9397 2.64794 20.9999 2.50673 20.9999Z" fill="#000248"/>
        <path d="M16.8496 19.6348C16.7084 19.6348 16.5672 19.5746 16.4462 19.4742L14.5096 17.5469C14.2877 17.326 14.2877 16.9847 14.5096 16.7639C14.7315 16.5431 15.0744 16.5431 15.2963 16.7639L17.2329 18.6912C17.4548 18.9121 17.4548 19.2534 17.2329 19.4742C17.132 19.5947 16.9908 19.6348 16.8496 19.6348Z" fill="#000248"/>
        <path d="M3.75747 6.62525C3.61626 6.62525 3.47505 6.56502 3.35401 6.46464L1.41741 4.53729C1.21568 4.31645 1.21568 3.95508 1.41741 3.73423C1.63931 3.51339 1.98225 3.51339 2.20415 3.73423L4.14075 5.66158C4.36265 5.88242 4.36265 6.22372 4.14075 6.44456C4.06006 6.56502 3.91885 6.62525 3.75747 6.62525Z" fill="#000248"/>
        <path d="M15.4376 6.32404C15.2964 6.32404 15.1551 6.26381 15.0341 6.16343C14.8122 5.94259 14.8122 5.60129 15.0341 5.38045L16.9707 3.45311C17.1926 3.23227 17.5355 3.23227 17.7574 3.45311C17.9793 3.67395 17.9793 4.01525 17.7574 4.23609L15.8208 6.16343C15.7402 6.26381 15.5788 6.32404 15.4376 6.32404Z" fill="#000248"/>
        <path d="M20.4404 12.1664H17.6969C17.3943 12.1664 17.1321 11.9255 17.1321 11.6043C17.1321 11.283 17.3742 11.0421 17.6969 11.0421H20.4404C20.743 11.0421 21.0053 11.283 21.0053 11.6043C21.0053 11.9255 20.743 12.1664 20.4404 12.1664Z" fill="#000248"/>
        <path d="M9.32522 3.85468C9.02262 3.85468 8.76038 3.61377 8.76038 3.29254V0.562141C8.76038 0.260994 9.00245 0 9.32522 0C9.64798 0 9.89006 0.240918 9.89006 0.562141V3.29254C9.89006 3.59369 9.64798 3.85468 9.32522 3.85468Z" fill="#000248"/>
    </symbol>

    <symbol id="wrong" viewBox="0 0 24 24" fill="none" xmlns="http://www.w3.org/2000/svg">
        <path d="M12.0039 24C5.357 24 0 18.6219 0 11.9574C0 5.33169 5.39573 -0.0270204 12.0813 0.000102508C18.6856 0.0272254 24.0155 5.40919 24 12.0659C23.9845 18.6297 18.5965 24 12.0039 24Z" fill="#FF505A"/>
        <g clip-path="url(#clip0_179_2043)">
        <path d="M13.3157 12.0002L15.7898 9.52534C16.0632 9.25189 16.0632 8.80856 15.7898 8.53554L15.46 8.2056C15.1866 7.93206 14.7434 7.93206 14.4704 8.2056L11.9964 10.6804L9.52229 8.20509C9.24893 7.93164 8.80574 7.93164 8.5328 8.20509L8.20246 8.53502C7.9291 8.80856 7.9291 9.25189 8.20246 9.52492L10.677 12.0002L8.20297 14.4751C7.92952 14.7486 7.92952 15.1919 8.20297 15.465L8.5328 15.7949C8.80617 16.0683 9.24936 16.0683 9.52229 15.7949L11.9964 13.32L14.4704 15.7949C14.7439 16.0683 15.1871 16.0683 15.46 15.7949L15.7898 15.465C16.0632 15.1914 16.0632 14.7481 15.7898 14.4751L13.3157 12.0002Z" fill="white"/>
        </g>
        <defs>
        <clipPath id="clip0_179_2043">
        <rect width="7.99744" height="8" fill="white" transform="translate(7.99744 8)"/>
        </clipPath>
        </defs>
    </symbol>

    <symbol id="trending" viewBox="0 0 24 15" fill="none" xmlns="http://www.w3.org/2000/svg">
        <path d="M22.6143 3.63046C22.2882 3.63046 22.0056 3.36959 22.0056 3.02176V1.23914L20.1142 1.19566C19.7882 1.19566 19.5273 0.913049 19.5273 0.58696C19.5273 0.260871 19.8099 0 20.136 0L23.1795 0.0869571V3.02176C23.223 3.34785 22.9403 3.63046 22.6143 3.63046Z" fill="#000248"/>
        <path d="M6.26636 5.34795C6.11418 5.34795 5.96201 5.28274 5.83157 5.17404C5.59244 4.93491 5.59244 4.56534 5.83157 4.32621L8.09246 2.08706C8.33159 1.84793 8.70115 1.84793 8.94029 2.08706C9.17942 2.3262 9.17942 2.69576 8.94029 2.9349L6.70114 5.17404C6.57071 5.28274 6.41853 5.34795 6.26636 5.34795Z" fill="#000248"/>
        <path d="M17.223 12.1742C17.0708 12.1742 16.9186 12.109 16.7882 12.0003C16.549 11.7611 16.549 11.3916 16.7882 11.1524L20.1143 7.80459C20.3534 7.56546 20.723 7.56546 20.9621 7.80459C21.2012 8.04373 21.2012 8.41329 20.9621 8.65243L17.636 11.9785C17.5273 12.109 17.3751 12.1742 17.223 12.1742Z" fill="#000248"/>
        <path d="M0.614134 14.9998C0.46196 14.9998 0.309785 14.9346 0.179349 14.8259C-0.059783 14.5867 -0.059783 14.2172 0.179349 13.978L8.15766 5.99971C8.39679 5.76058 8.76636 5.76058 9.00549 5.99971L12.7012 9.69539L22.1795 0.217069C22.4186 -0.0220633 22.7882 -0.0220633 23.0273 0.217069C23.2665 0.456201 23.2665 0.825768 23.0273 1.0649L13.136 10.9563C12.8968 11.1954 12.5273 11.1954 12.2881 10.9563L8.59245 7.26059L1.02718 14.8259C0.918484 14.9346 0.766309 14.9998 0.614134 14.9998Z" fill="#000248"/>
    </symbol>

    <symbol id="plane" viewBox="0 0 20 20" fill="none" xmlns="http://www.w3.org/2000/svg">
        <g clip-path="url(#clip0_179_2065)">
        <path d="M9.37429 14.6154C9.08889 14.6154 8.8474 14.4176 8.78154 14.1319C8.71568 13.8022 8.91326 13.4725 9.24257 13.4066C10.9989 13.011 13.4577 12.1538 15.2799 10.3297C18.1998 7.40659 18.6827 2.94506 18.7706 1.23077C17.0582 1.31868 12.6015 1.8022 9.68165 4.72527C7.85947 6.54945 7.00327 9.03297 6.6081 10.7692C6.54224 11.0989 6.21293 11.2967 5.88362 11.2308C5.55432 11.1648 5.35673 10.8352 5.42259 10.5055C6.0373 7.73626 7.20086 5.49451 8.82545 3.86813C12.2503 0.43956 17.5192 0.043956 19.034 0C19.2975 0 19.5389 0.0879121 19.7146 0.263736C19.8902 0.43956 20 0.703297 19.978 0.945055C19.9341 2.48352 19.5389 7.73626 16.1141 11.1648C14.4896 12.7912 12.2503 13.956 9.48406 14.5714C9.46211 14.5934 9.4182 14.6154 9.37429 14.6154Z" fill="#000248"/>
        <path d="M0.943989 18.2637C0.790312 18.2637 0.636635 18.1978 0.504911 18.0879C0.263418 17.8461 0.263418 17.4725 0.504911 17.2308L5.02741 12.7472C5.26891 12.5055 5.64212 12.5055 5.88362 12.7472C6.12511 12.989 6.12511 13.3626 5.88362 13.6044L1.36111 18.0879C1.25134 18.1978 1.09767 18.2637 0.943989 18.2637Z" fill="#000248"/>
        <path d="M4.06148 18.1758C3.9078 18.1758 3.75413 18.1099 3.6224 18C3.38091 17.7582 3.38091 17.3846 3.6224 17.1428L6.52032 14.2417C6.76181 14 7.13503 14 7.37652 14.2417C7.61801 14.4835 7.61801 14.8571 7.37652 15.0989L4.50056 18C4.36884 18.1099 4.21516 18.1758 4.06148 18.1758Z" fill="#000248"/>
        <path d="M13.1504 9.73624C12.4259 9.73624 11.7015 9.47251 11.1526 8.92306C10.6257 8.39558 10.3184 7.69229 10.3184 6.92306C10.3184 6.1758 10.6038 5.47251 11.1526 4.92306C11.6795 4.39558 12.382 4.08789 13.1504 4.08789C13.8968 4.08789 14.5994 4.3736 15.1482 4.92306C16.2459 6.02196 16.2459 7.80218 15.1482 8.90108C14.5994 9.45053 13.8749 9.73624 13.1504 9.73624ZM13.1504 5.31866C12.7333 5.31866 12.3162 5.49448 12.0308 5.7802C11.7234 6.08789 11.5697 6.48349 11.5697 6.90108C11.5697 7.31866 11.7454 7.73624 12.0308 8.02196C12.6455 8.63734 13.6773 8.63734 14.292 8.02196C14.9067 7.40657 14.9067 6.37361 14.292 5.75822C13.9847 5.47251 13.5675 5.31866 13.1504 5.31866Z" fill="#000248"/>
        <path d="M11.7453 20C11.6575 20 11.5697 19.9781 11.4819 19.9561C11.2184 19.8462 11.0428 19.5825 11.0428 19.2967V15.6704C11.0428 15.3407 11.3062 15.055 11.6575 15.055C11.9868 15.055 12.2722 15.3187 12.2722 15.6704V18.066L13.8748 16.4616C13.8748 16.022 13.8968 14.9451 13.8968 13.9561C13.8968 13.6264 14.1602 13.3407 14.5115 13.3407C14.8408 13.3407 15.1262 13.6264 15.1262 13.9561C15.1262 13.9561 15.1262 14.6374 15.1262 15.3187C15.1043 16.9451 15.1043 16.9451 14.9286 17.1209L12.2503 19.8022C12.1185 19.9341 11.9429 20 11.7453 20Z" fill="#000248"/>
        <path d="M4.32492 8.94508H0.702524C0.417124 8.94508 0.153677 8.76926 0.0439075 8.50552C-0.065862 8.24179 -2.8871e-07 7.9341 0.197585 7.73629L2.85401 5.07695C3.05159 4.87915 3.05159 4.87915 4.65423 4.87915C5.3348 4.87915 6.01537 4.87915 6.01537 4.87915C6.34468 4.87915 6.63008 5.14289 6.63008 5.49453C6.63008 5.82421 6.36663 6.10992 6.01537 6.10992C5.0494 6.10992 3.97365 6.1319 3.51262 6.1319L1.90999 7.73629H4.30296C4.63227 7.73629 4.91767 8.00003 4.91767 8.35168C4.93963 8.68135 4.65423 8.94508 4.32492 8.94508Z" fill="#000248"/>
        </g>
        <defs>
        <clipPath id="clip0_179_2065">
        <rect width="20" height="20" fill="white"/>
        </clipPath>
        </defs>
    </symbol>

    <symbol id="search" viewBox="0 0 16 15" xmlns="http://www.w3.org/2000/svg">
        <path d="M7.34752 0C3.63851 0 0.617188 3.02132 0.617188 6.73034C0.617188 10.4393 3.63851 13.4665 7.34752 13.4665C8.93174 13.4665 10.3887 12.9113 11.5403 11.9895L14.3437 14.7915C14.4852 14.9271 14.6742 15.002 14.8701 15C15.0661 14.998 15.2535 14.9193 15.3922 14.7808C15.5308 14.6423 15.6098 14.4551 15.612 14.2591C15.6143 14.0632 15.5398 13.8741 15.4043 13.7324L12.6009 10.929C13.5234 9.77569 14.0793 8.3164 14.0793 6.73034C14.0793 3.02132 11.0565 0 7.34752 0ZM7.34752 1.49598C10.248 1.49598 12.5819 3.82981 12.5819 6.73034C12.5819 9.63087 10.248 11.9706 7.34752 11.9706C4.44698 11.9706 2.11314 9.63087 2.11314 6.73034C2.11314 3.82981 4.44698 1.49598 7.34752 1.49598Z" />
    </symbol>

    <symbol id="stroke-user" viewBox="0 0 33 33" fill="none" xmlns="http://www.w3.org/2000/svg">
        <path d="M16.5002 2.0625C15.0725 2.0625 13.6768 2.48587 12.4897 3.27908C11.3026 4.07229 10.3773 5.1997 9.83096 6.51875C9.28459 7.83781 9.14164 9.28926 9.42017 10.6896C9.69871 12.0899 10.3862 13.3761 11.3958 14.3857C12.4054 15.3952 13.6916 16.0828 15.0919 16.3613C16.4922 16.6398 17.9437 16.4969 19.2627 15.9505C20.5818 15.4041 21.7092 14.4789 22.5024 13.2918C23.2956 12.1047 23.719 10.709 23.719 9.28125C23.719 7.36672 22.9584 5.5306 21.6046 4.17682C20.2509 2.82304 18.4147 2.0625 16.5002 2.0625ZM16.5002 14.4375C15.4804 14.4375 14.4835 14.1351 13.6356 13.5685C12.7876 13.0019 12.1267 12.1966 11.7365 11.2545C11.3462 10.3123 11.2441 9.27553 11.443 8.27532C11.642 7.2751 12.1331 6.35635 12.8542 5.63523C13.5753 4.91412 14.4941 4.42303 15.4943 4.22408C16.4945 4.02512 17.5312 4.12723 18.4734 4.5175C19.4156 4.90776 20.2209 5.56865 20.7875 6.41659C21.3541 7.26453 21.6565 8.26144 21.6565 9.28125C21.6565 9.95838 21.5231 10.6289 21.264 11.2545C21.0048 11.88 20.625 12.4485 20.1462 12.9273C19.6674 13.4061 19.099 13.7859 18.4734 14.045C17.8478 14.3041 17.1773 14.4375 16.5002 14.4375Z" fill="#2EC5E6"/>
        <path d="M21.8318 18.5625H11.1687C8.75444 18.5652 6.4399 19.5255 4.7328 21.2326C3.02569 22.9397 2.06544 25.2542 2.06271 27.6684C2.06271 28.5354 2.40713 29.3669 3.0202 29.98C3.63327 30.5931 4.46477 30.9375 5.33178 30.9375H27.6687C28.5357 30.9375 29.3672 30.5931 29.9802 29.98C30.5933 29.3669 30.9377 28.5354 30.9377 27.6684C30.935 25.2542 29.9747 22.9397 28.2676 21.2326C26.5605 19.5255 24.246 18.5652 21.8318 18.5625ZM27.6687 28.875H5.33178C5.01178 28.875 4.70488 28.7479 4.47861 28.5216C4.25233 28.2953 4.12521 27.9884 4.12521 27.6684C4.12521 25.8004 4.86729 24.0089 6.18819 22.688C7.50909 21.3671 9.30062 20.625 11.1687 20.625H21.8318C23.6998 20.625 25.4913 21.3671 26.8122 22.688C28.1331 24.0089 28.8752 25.8004 28.8752 27.6684C28.8752 27.9884 28.7481 28.2953 28.5218 28.5216C28.2955 28.7479 27.9887 28.875 27.6687 28.875Z" fill="#2EC5E6"/>
    </symbol>

    <symbol id="stroke-resume" viewBox="0 0 39 39" fill="none" xmlns="http://www.w3.org/2000/svg">
        <path d="M33.5422 11.1868L24.2911 1.93568C24.2138 1.85577 24.121 1.79259 24.0183 1.75004C23.9157 1.70749 23.8054 1.68649 23.6943 1.68834H8.58387C7.68833 1.68834 6.82948 2.0441 6.19624 2.67734C5.563 3.31057 5.20724 4.16943 5.20724 5.06497V33.9351C5.20724 34.8306 5.563 35.6895 6.19624 36.3227C6.82948 36.956 7.68833 37.3117 8.58387 37.3117H30.4129C31.3084 37.3117 32.1673 36.956 32.8005 36.3227C33.4338 35.6895 33.7895 34.8306 33.7895 33.9351V11.7836C33.7888 11.5599 33.7 11.3454 33.5422 11.1868ZM30.9076 10.9394H25.8046C25.4688 10.9394 25.1467 10.806 24.9093 10.5686C24.6718 10.3311 24.5384 10.009 24.5384 9.67321V4.57029L30.9076 10.9394ZM30.4129 35.6234H8.5864C8.13863 35.6234 7.7092 35.4455 7.39258 35.1289C7.07596 34.8123 6.89809 34.3829 6.89809 33.9351V5.06497C6.89809 4.6172 7.07596 4.18777 7.39258 3.87115C7.7092 3.55453 8.13863 3.37666 8.5864 3.37666H22.8526V9.67321C22.8526 10.4568 23.1639 11.2083 23.718 11.7624C24.2721 12.3165 25.0236 12.6278 25.8072 12.6278H32.1037V33.9351C32.1037 34.157 32.06 34.3768 31.975 34.5818C31.89 34.7868 31.7654 34.973 31.6083 35.1298C31.4513 35.2866 31.2649 35.4109 31.0598 35.4956C30.8546 35.5803 30.6348 35.6237 30.4129 35.6234Z" fill="#359CEF"/>
        <path d="M16.1085 14.6884C16.7847 14.6884 17.4457 14.4879 18.0079 14.1122C18.5701 13.7365 19.0083 13.2026 19.2671 12.5779C19.5258 11.9532 19.5936 11.2657 19.4616 10.6026C19.3297 9.93937 19.0041 9.33019 18.526 8.85206C18.0478 8.37393 17.4387 8.04832 16.7755 7.9164C16.1123 7.78449 15.4249 7.85219 14.8002 8.11095C14.1755 8.36972 13.6415 8.80792 13.2658 9.37014C12.8902 9.93236 12.6897 10.5934 12.6897 11.2695C12.6908 12.1759 13.0513 13.0449 13.6923 13.6858C14.3332 14.3267 15.2021 14.6873 16.1085 14.6884ZM16.1085 9.53902C16.4508 9.53902 16.7853 9.64051 17.0699 9.83067C17.3545 10.0208 17.5763 10.2911 17.7073 10.6073C17.8383 10.9235 17.8725 11.2715 17.8058 11.6071C17.739 11.9428 17.5742 12.2512 17.3322 12.4932C17.0901 12.7352 16.7818 12.9 16.4461 12.9668C16.1104 13.0336 15.7625 12.9993 15.4463 12.8683C15.13 12.7374 14.8598 12.5155 14.6696 12.231C14.4795 11.9464 14.378 11.6118 14.378 11.2695C14.3786 10.8108 14.5612 10.371 14.8856 10.0466C15.21 9.72223 15.6497 9.53969 16.1085 9.53902Z" fill="#359CEF"/>
        <path d="M11.1608 21.2305C11.3847 21.2305 11.5994 21.1416 11.7577 20.9833C11.916 20.825 12.0049 20.6103 12.0049 20.3864V19.8714C12.006 19.0421 12.336 18.247 12.9225 17.6605C13.5089 17.0741 14.304 16.7441 15.1334 16.743H17.0834C17.9127 16.7441 18.7078 17.0741 19.2943 17.6605C19.8807 18.247 20.2107 19.0421 20.2118 19.8714V20.3864C20.2118 20.6103 20.3008 20.825 20.4591 20.9833C20.6174 21.1416 20.8321 21.2305 21.056 21.2305C21.2799 21.2305 21.4946 21.1416 21.6529 20.9833C21.8112 20.825 21.9001 20.6103 21.9001 20.3864V19.8714C21.8986 18.5944 21.3906 17.3702 20.4876 16.4672C19.5846 15.5642 18.3604 15.0563 17.0834 15.0547H15.1334C13.8564 15.0563 12.6321 15.5642 11.7291 16.4672C10.8262 17.3702 10.3182 18.5944 10.3166 19.8714V20.3864C10.3166 20.6103 10.4056 20.825 10.5639 20.9833C10.7222 21.1416 10.9369 21.2305 11.1608 21.2305Z" fill="#359CEF"/>
        <path d="M10.692 27.4072H20.9359C21.1597 27.4072 21.3745 27.3182 21.5328 27.1599C21.6911 27.0016 21.78 26.7869 21.78 26.563C21.78 26.3391 21.6911 26.1244 21.5328 25.9661C21.3745 25.8078 21.1597 25.7189 20.9359 25.7189H10.692C10.4681 25.7189 10.2534 25.8078 10.0951 25.9661C9.93681 26.1244 9.84787 26.3391 9.84787 26.563C9.84787 26.7869 9.93681 27.0016 10.0951 27.1599C10.2534 27.3182 10.4681 27.4072 10.692 27.4072Z" fill="#359CEF"/>
        <path d="M26.731 30.1642H10.692C10.4681 30.1642 10.2534 30.2531 10.0951 30.4114C9.93681 30.5697 9.84787 30.7845 9.84787 31.0083C9.84787 31.2322 9.93681 31.4469 10.0951 31.6052C10.2534 31.7636 10.4681 31.8525 10.692 31.8525H26.731C26.9549 31.8525 27.1696 31.7636 27.3279 31.6052C27.4862 31.4469 27.5751 31.2322 27.5751 31.0083C27.5751 30.7845 27.4862 30.5697 27.3279 30.4114C27.1696 30.2531 26.9549 30.1642 26.731 30.1642Z" fill="#359CEF"/>
    </symbol>


    <symbol id="stroke-job" viewBox="0 0 40 40" fill="none" xmlns="http://www.w3.org/2000/svg">
            <path d="M22.8264 30.8228L24.7256 28.9235" stroke="#7366FF" stroke-width="1.5" stroke-miterlimit="10" stroke-linecap="round" stroke-linejoin="round"/>
            <path d="M23.0576 27.2569L21.1584 29.1561" stroke="#7366FF" stroke-width="1.5" stroke-miterlimit="10" stroke-linecap="round" stroke-linejoin="round"/>
            <mask id="mask0_1_6407" style="mask-type:luminance" maskUnits="userSpaceOnUse" x="0" y="0" width="41" height="40">
            <path d="M0.000213623 1.14441e-05H40.0002V40H0.000213623V1.14441e-05Z" fill="white"/>
            </mask>
            <g mask="url(#mask0_1_6407)">
            <path d="M23.6233 33.9148H32.8787C34.7978 33.9148 36.3536 32.359 36.3536 30.44V28.5095" stroke="#7366FF" stroke-width="1.5" stroke-miterlimit="10" stroke-linecap="round" stroke-linejoin="round"/>
            <path d="M36.3536 14.8744V12.3646C36.3536 10.4456 34.7978 8.8898 32.8787 8.8898H4.06099C2.14193 8.8898 0.586151 10.4456 0.586151 12.3646V30.44C0.586151 32.359 2.14193 33.9148 4.06099 33.9148H12.5393" stroke="#7366FF" stroke-width="1.5" stroke-miterlimit="10" stroke-linecap="round" stroke-linejoin="round"/>
            <path d="M0.586151 14.7814C0.586151 18.2589 3.40521 21.078 6.88279 21.078H6.95513" stroke="#7366FF" stroke-width="1.5" stroke-miterlimit="10" stroke-linecap="round" stroke-linejoin="round"/>
            <path d="M10.2032 21.078H21.1875" stroke="#7366FF" stroke-width="1.5" stroke-miterlimit="10" stroke-linecap="round" stroke-linejoin="round"/>
            <path d="M18.02 36.5632L22.7983 31.7849C23.0721 31.5111 23.0721 31.0671 22.7983 30.7933L21.1878 29.1829C20.914 28.909 20.4701 28.909 20.1963 29.1829L15.418 33.9611C14.6995 34.6796 14.6995 35.8446 15.418 36.5632C16.1366 37.2817 17.3015 37.2817 18.02 36.5632Z" stroke="#7366FF" stroke-width="1.5" stroke-miterlimit="10" stroke-linecap="round" stroke-linejoin="round"/>
            <path d="M19.1447 30.2365L21.7468 32.8385" stroke="#7366FF" stroke-width="1.5" stroke-miterlimit="10" stroke-linecap="round" stroke-linejoin="round"/>
            <path d="M36.742 28.1436C33.1789 31.7067 27.4018 31.7067 23.8386 28.1436C20.2754 24.5805 20.2754 18.8033 23.8386 15.2402C27.4018 11.677 33.1789 11.677 36.742 15.2402C40.3052 18.8033 40.3052 24.5805 36.742 28.1436Z" stroke="#7366FF" stroke-width="1.5" stroke-miterlimit="10" stroke-linecap="round" stroke-linejoin="round"/>
            <path d="M36.5956 23.0691C36.3417 24.2363 35.7612 25.3466 34.8538 26.254C32.3343 28.7736 28.2492 28.7736 25.7297 26.254C23.2102 23.7345 23.2102 19.6495 25.7297 17.13C28.2492 14.6104 32.3343 14.6104 34.8538 17.13C35.7603 18.0365 36.3406 19.1455 36.5949 20.3115" stroke="#7366FF" stroke-width="1.5" stroke-miterlimit="10" stroke-linecap="round" stroke-linejoin="round"/>
            <path d="M8.57927 25.402C7.68248 25.402 6.95544 24.6749 6.95544 23.7781V20.0044C6.95544 19.1076 7.68248 18.3806 8.57927 18.3806C9.47607 18.3806 10.2031 19.1076 10.2031 20.0044V23.7781C10.2031 24.6749 9.47607 25.402 8.57927 25.402Z" stroke="#7366FF" stroke-width="1.5" stroke-miterlimit="10" stroke-linecap="round" stroke-linejoin="round"/>
            <path d="M10.2031 22.563H6.95544" stroke="#7366FF" stroke-width="1.5" stroke-miterlimit="10" stroke-linecap="round" stroke-linejoin="round"/>
            <path d="M25.1697 8.88989V6.26317C25.1697 4.40763 23.6601 2.89802 21.8045 2.89802H15.1351C13.2795 2.89802 11.7699 4.40763 11.7699 6.26317V8.88989" stroke="#7366FF" stroke-width="1.5" stroke-miterlimit="10" stroke-linecap="round" stroke-linejoin="round"/>
            <path d="M14.1918 8.88989V6.26317C14.1918 5.74302 14.615 5.31989 15.1351 5.31989H21.8045C22.3247 5.31989 22.7479 5.74302 22.7479 6.26317V8.88989" stroke="#7366FF" stroke-width="1.5" stroke-miterlimit="10" stroke-linecap="round" stroke-linejoin="round"/>
            </g>
    </symbol>

    <symbol id="stroke-apply" viewBox="0 0 30 34" fill="none" xmlns="http://www.w3.org/2000/svg">
        <path d="M30.0002 25.049C30.0002 20.9244 30.0002 16.7997 30.0002 12.675C30.0002 11.137 29.3011 10.1583 28.2525 9.10965C25.8056 6.66282 23.3588 4.21598 20.912 1.76914C19.1642 0.0214007 17.5563 0.0913106 15.1794 0.0913106C12.8024 0.0913106 10.4954 0.0913106 8.1185 0.0913106C6.72031 0.0913106 4.97257 -0.188328 3.57437 0.23113C2.17618 0.580678 1.12754 1.90896 0.847897 3.30715C0.498349 5.26462 0.777988 7.43182 0.777988 9.38929V16.1006C0.777988 20.7146 0.708078 25.2588 0.777988 29.8728C0.777988 32.1099 2.38591 33.7178 4.62302 33.7878C8.18841 33.8577 11.7538 33.7878 15.3192 33.7878C18.9545 33.7878 22.5199 33.8577 26.1552 33.7878C28.3923 33.7178 30.0002 32.04 30.0002 29.8029C30.0002 28.195 30.0002 26.657 30.0002 25.049ZM19.7934 3.58679C20.073 3.86643 20.3527 4.14607 20.6323 4.42571C21.1217 4.91507 21.681 5.47435 22.1703 5.96372L26.4348 10.2282C25.7357 10.2282 24.9667 10.2282 24.2676 10.2282C23.2889 10.2282 22.3102 10.2282 21.2615 10.2282C20.2828 10.2282 19.7934 9.52911 19.7934 8.62029C19.7934 6.94245 19.7934 5.26462 19.7934 3.58679ZM26.2251 31.6206C23.3588 31.7604 20.4226 31.6206 17.5563 31.6206C13.5714 31.6206 9.5866 31.6206 5.60175 31.6206C4.41329 31.6206 3.0151 31.6206 2.87528 29.9427C2.80537 29.1038 2.87528 28.2649 2.87528 27.426C2.87528 19.7359 2.87528 11.9759 2.87528 4.28589C2.87528 4.07616 2.87528 3.86643 2.87528 3.72661C2.94519 1.76914 5.11238 2.11869 6.51058 2.11869H13.0821C14.6201 2.11869 16.1581 2.04878 17.6262 2.11869H17.6961V8.55038C17.6961 9.17956 17.766 9.80875 18.0457 10.368C18.6049 11.4866 19.7235 12.1857 20.912 12.3255C21.8208 12.3954 22.7995 12.3255 23.7783 12.3255H27.7631H27.9029C27.9728 13.444 27.9029 14.6325 27.9029 15.7511V22.3925V28.4746C27.9029 29.733 28.1127 31.5506 26.2251 31.6206Z" fill="#B848ED"/>
        <path d="M15.7382 13.7236C15.2488 13.374 14.7595 13.2342 14.2002 13.7935C13.7807 14.213 13.4312 14.5625 13.0117 14.982C12.2427 15.751 11.4038 16.5899 10.6348 17.3589C9.65605 18.3376 11.1941 19.8057 12.1029 18.827C12.7321 18.1978 13.3613 17.5686 13.9904 16.9394V20.6446V21.5535C13.9904 22.1127 14.4798 22.6021 15.0391 22.6021C15.5984 22.6021 16.0877 22.1127 16.0877 21.5535C16.0877 20.0155 16.0877 18.4774 16.0877 16.9394L17.9753 18.827C18.954 19.8057 20.4221 18.2677 19.4434 17.3589C18.7443 16.6598 17.9753 15.8908 17.2762 15.1917C16.7868 14.7023 16.2975 14.143 15.7382 13.7236Z" fill="#B848ED"/>
        <path d="M12.1739 26.2375H17.0675H17.7666C18.3259 26.2375 18.8153 25.7482 18.8153 25.1889C18.8153 24.6296 18.3259 24.1403 17.7666 24.1403C16.1587 24.1403 14.4809 24.1403 12.873 24.1403C12.6632 24.1403 12.3836 24.1403 12.1739 24.1403C11.6146 24.1403 11.1252 24.6296 11.1252 25.1889C11.1951 25.8181 11.6146 26.2375 12.1739 26.2375Z" fill="#B848ED"/>
        <path d="M17.835 27.4259C16.2271 27.4259 14.5492 27.4259 12.9413 27.4259C12.7316 27.4259 12.4519 27.4259 12.2422 27.4259C11.6829 27.4259 11.1936 27.9153 11.1936 28.4745C11.1936 29.0338 11.6829 29.5232 12.2422 29.5232H17.1359H17.835C18.3943 29.5232 18.8836 29.0338 18.8836 28.4745C18.8836 27.9153 18.4642 27.4259 17.835 27.4259Z" fill="#B848ED"/>
    </symbol>


</svg>