<svg>
    <symbol id="envelope" viewBox="0 0 16 16" xmlns="http://www.w3.org/2000/svg">
        <g clip-path="url(#clip0_1_174)">
            <path d="M1.99998 2H14C14.1768 2 14.3464 2.07024 14.4714 2.19526C14.5964 2.32029 14.6666 2.48986 14.6666 2.66667V13.3333C14.6666 13.5101 14.5964 13.6797 14.4714 13.8047C14.3464 13.9298 14.1768 14 14 14H1.99998C1.82317 14 1.6536 13.9298 1.52858 13.8047C1.40355 13.6797 1.33331 13.5101 1.33331 13.3333V2.66667C1.33331 2.48986 1.40355 2.32029 1.52858 2.19526C1.6536 2.07024 1.82317 2 1.99998 2ZM8.03998 7.78867L3.76531 4.15867L2.90198 5.17467L8.04865 9.54467L13.1026 5.17133L12.2306 4.16267L8.04065 7.78867H8.03998Z"/>
        </g>
        <defs>
            <clipPath id="clip0_1_174">
                <rect width="16" height="16" fill="white"/>
            </clipPath>
        </defs>
    </symbol>

    <symbol id="arrow-right" viewBox="0 0 12 12" xmlns="http://www.w3.org/2000/svg">
        <path d="M0.770095 6.79025H9.37205L5.61399 10.6467C5.31365 10.9549 5.31365 11.4607 5.61399 11.7689C5.91433 12.077 6.39949 12.077 6.69982 11.7689L11.7747 6.56108C12.0751 6.25288 12.0751 5.75502 11.7747 5.44682L6.70752 0.231149C6.40719 -0.0770497 5.92203 -0.0770497 5.62169 0.231149C5.32135 0.539348 5.32135 1.03721 5.62169 1.34541L9.37205 5.20975H0.770095C0.346543 5.20975 0 5.56536 0 6C0 6.43464 0.346543 6.79025 0.770095 6.79025Z" />
    </symbol>

    <symbol id="right" viewBox="0 0 24 24" fill="none" xmlns="http://www.w3.org/2000/svg">
        <circle cx="12" cy="12" r="12" fill="#54BA4A"/>
        <path d="M6 13.0712L7.51436 11.9706C7.51436 11.9706 9.91847 14.5546 9.90669 14.7281C9.90669 14.7281 14.0078 8.2621 18.6923 7V7.28113C18.6923 7.28113 11.586 11.5699 10.0599 18L6 13.0712Z" fill="white" stroke="white"/>
    </symbol>

    <symbol id="interface" viewBox="0 0 18 18" fill="none" xmlns="http://www.w3.org/2000/svg">
        <path d="M16.418 9.52734C15.8914 9.52734 15.4274 9.78854 15.1397 10.1853L11.6201 9.16438C11.6235 9.10904 11.6367 9.0563 11.6367 9C11.6367 8.46346 11.4738 7.96509 11.1974 7.54829L14.8258 3.91992C15.1394 4.10518 15.5006 4.21875 15.8906 4.21875C17.0539 4.21875 18 3.27269 18 2.10938C18 0.94606 17.0539 0 15.8906 0C14.7273 0 13.7812 0.94606 13.7812 2.10938C13.7812 2.49939 13.8948 2.86057 14.0801 3.17422L10.4517 6.8026C10.0349 6.52615 9.53654 6.36328 9 6.36328C8.46346 6.36328 7.96509 6.52615 7.54829 6.8026L4.09529 3.34959C4.19403 3.14333 4.25391 2.91536 4.25391 2.67188C4.25391 1.79956 3.54419 1.08984 2.67188 1.08984C1.79956 1.08984 1.08984 1.79956 1.08984 2.67188C1.08984 3.54419 1.79956 4.25391 2.67188 4.25391C2.91536 4.25391 3.14333 4.19403 3.34959 4.09529L6.8026 7.54829C6.52615 7.96509 6.36328 8.46346 6.36328 9C6.36328 9.18265 6.38223 9.3609 6.4178 9.53311L2.73999 11.0943C2.45078 10.7814 2.04071 10.582 1.58203 10.582C0.709717 10.582 0 11.2917 0 12.1641C0 13.0364 0.709717 13.7461 1.58203 13.7461C2.45435 13.7461 3.16406 13.0364 3.16406 12.1641C3.16406 12.1297 3.1561 12.0977 3.15404 12.0639L6.83693 10.5006C7.3136 11.1855 8.10406 11.6367 9 11.6367C9.00851 11.6367 9.01648 11.6342 9.02499 11.6342L9.53929 14.0681C8.90538 14.4323 8.47266 15.1084 8.47266 15.8906C8.47266 17.0539 9.41872 18 10.582 18C11.7453 18 12.6914 17.0539 12.6914 15.8906C12.6914 14.7273 11.7453 13.7812 10.582 13.7812C10.5734 13.7812 10.5654 13.7837 10.5568 13.7839L10.0559 11.4125C10.6165 11.166 11.0678 10.7268 11.3437 10.1828L14.8449 11.1982C14.892 12.0287 15.576 12.6914 16.418 12.6914C17.2903 12.6914 18 11.9817 18 11.1094C18 10.2371 17.2903 9.52734 16.418 9.52734Z" fill="#7366FF"/>
    </symbol>

    <symbol id="lock" viewBox="0 0 13 18" fill="none" xmlns="http://www.w3.org/2000/svg">
        <path d="M1.22471 7.34851H3.25486V5.15779C3.25486 3.43317 4.71067 2.03015 6.50006 2.03015C8.28944 2.03015 9.74525 3.43324 9.74525 5.15779V7.34851H11.7754V5.15779C11.7754 2.31374 9.40888 0 6.50006 0C3.59123 0 1.22471 2.3138 1.22471 5.15779V7.34851Z" fill="#7366FF"/>
        <path d="M1.26884 17.4484H11.7312C12.4319 17.4484 13 16.8803 13 16.1795V7.82146C13 7.12067 12.4319 6.55261 11.7312 6.55261H1.26884C0.568061 6.55261 0 7.12067 0 7.82146V16.1795C0 16.8803 0.568061 17.4484 1.26884 17.4484Z" fill="#7366FF"/>
        <path d="M5.13556 11.0758C5.13556 10.3237 5.74638 9.71387 6.49988 9.71387C7.25339 9.71387 7.86421 10.3236 7.86421 11.0758C7.86421 11.521 7.64933 11.9151 7.31848 12.1636V14.1987H5.68123V12.1636C5.3505 11.9151 5.13556 11.521 5.13556 11.0758Z" fill="white"/>
    </symbol>

    <symbol id="map-pin" viewBox="0 0 15 21" fill="none" xmlns="http://www.w3.org/2000/svg">
        <path d="M7.17969 0.288818C3.22081 0.288818 0 3.50963 0 7.46851C0 8.80608 0.370512 10.1114 1.07173 11.2439L6.771 20.4282C6.88017 20.6041 7.07251 20.711 7.27937 20.711C7.28096 20.711 7.28252 20.711 7.28411 20.711C7.49276 20.7094 7.6855 20.5992 7.79267 20.4202L13.3467 11.1469C14.0092 10.0384 14.3594 8.76639 14.3594 7.46851C14.3594 3.50963 11.1386 0.288818 7.17969 0.288818ZM12.3198 10.5326L7.27031 18.9634L2.08877 10.6134C1.5051 9.67084 1.18864 8.58335 1.18864 7.46851C1.18864 4.16944 3.88062 1.47746 7.17969 1.47746C10.4788 1.47746 13.1667 4.16944 13.1667 7.46851C13.1667 8.55029 12.8711 9.60997 12.3198 10.5326Z" fill="white"/>
        <path d="M7.17969 3.87866C5.20025 3.87866 3.58984 5.48907 3.58984 7.46851C3.58984 9.4353 5.17404 11.0583 7.17969 11.0583C9.21006 11.0583 10.7695 9.41368 10.7695 7.46851C10.7695 5.48907 9.15913 3.87866 7.17969 3.87866ZM7.17969 9.86971C5.85316 9.86971 4.77848 8.79144 4.77848 7.46851C4.77848 6.14888 5.86006 5.0673 7.17969 5.0673C8.49931 5.0673 9.57691 6.14888 9.57691 7.46851C9.57691 8.77214 8.52724 9.86971 7.17969 9.86971Z" fill="white"/>
    </symbol>

    <symbol id="inbox" viewBox="0 0 19 14" fill="none" xmlns="http://www.w3.org/2000/svg">
        <path d="M17.3301 0.000488281H1.66992C0.747271 0.000488281 0 0.752398 0 1.67041V11.6899C0 12.6134 0.752764 13.3599 1.66992 13.3599H17.3301C18.245 13.3599 19 12.6166 19 11.6899V1.67041C19 0.754031 18.2557 0.000488281 17.3301 0.000488281ZM17.0962 1.11377C16.755 1.45313 10.8835 7.29371 10.6808 7.49536C10.3654 7.81079 9.94605 7.98446 9.5 7.98446C9.05395 7.98446 8.63461 7.81075 8.31814 7.49432C8.1818 7.35868 2.37511 1.58261 1.90379 1.11377H17.0962ZM1.11328 11.4634V1.89771L5.92407 6.68314L1.11328 11.4634ZM1.90449 12.2466L6.71338 7.46827L7.53198 8.28256C8.05767 8.80825 8.75659 9.09774 9.5 9.09774C10.2434 9.09774 10.9423 8.80825 11.467 8.2836L12.2866 7.46827L17.0955 12.2466H1.90449ZM17.8867 11.4634L13.0759 6.68314L17.8867 1.89771V11.4634Z" fill="white"/>
    </symbol>

    <symbol id="round-shape" viewBox="0 0 81 93" xmlns="http://www.w3.org/2000/svg">
        <path d="M46.7117 92.7224C48.4003 92.7224 50.089 92.6296 51.7776 92.444L51.6106 90.9595C38.0273 92.4255 24.7409 87.7678 15.1472 78.1741C5.55358 68.5805 0.89592 55.2941 2.36187 41.7108C4.58864 21.1318 21.141 4.598 41.72 2.37123L41.553 0.886719C31.2171 2.0001 21.4564 6.67632 14.071 14.0803C6.68552 21.4658 1.99075 31.2264 0.877361 41.5624C-0.625706 55.591 4.1804 69.3413 14.0895 79.2504C22.811 87.9534 34.4645 92.7224 46.7117 92.7224Z" />
        <path d="M46.656 89.9574C59.831 89.9574 72.1525 84.0379 80.4843 73.702L79.3153 72.7556C71.2803 82.739 59.3671 88.4544 46.656 88.4544C33.9449 88.4544 22.0316 82.739 13.9967 72.7556C1.82372 57.6322 1.82372 35.6985 13.9967 20.575L12.8277 19.6287C6.70406 27.2368 3.32681 36.8304 3.32681 46.6653C3.32681 56.4817 6.70406 66.0939 12.8277 73.702C21.1595 84.0379 33.4809 89.9574 46.656 89.9574Z" />
    </symbol>

    <symbol id="line-shape" viewBox="0 0 162 49" xmlns="http://www.w3.org/2000/svg">
        <path d="M68.2531 48.1243H162V46.6212H68.2531C55.4306 46.6212 43.3875 41.6296 34.3134 32.574L1.98816 0.248779L0.930435 1.3065L33.2557 33.6317C37.8762 38.2523 43.2761 41.8522 49.307 44.3574C55.3564 46.8439 61.7212 48.1243 68.2531 48.1243Z" />
    </symbol>

    <symbol id="user" viewBox="0 0 22 24" xmlns="http://www.w3.org/2000/svg">
        <path d="M11.0016 12.4626C14.4302 12.4626 17.2329 9.6599 17.2329 6.2313C17.2329 2.80271 14.4302 0 11.0016 0C7.57304 0 4.77039 2.80271 4.77039 6.2313C4.77039 9.6599 7.57309 12.4626 11.0016 12.4626Z" />
        <path d="M21.6955 16.9965C21.5323 16.5883 21.3146 16.2074 21.0697 15.8536C19.818 14.0032 17.8861 12.7788 15.7092 12.4794C15.4371 12.4523 15.1378 12.5066 14.9201 12.6699C13.7772 13.5135 12.4167 13.9488 11.0017 13.9488C9.58669 13.9488 8.22616 13.5135 7.0833 12.6699C6.86559 12.5066 6.56627 12.425 6.29418 12.4794C4.11731 12.7788 2.15814 14.0032 0.933663 15.8536C0.688768 16.2074 0.471059 16.6155 0.30783 16.9965C0.226216 17.1598 0.253403 17.3502 0.335018 17.5135C0.552726 17.8944 0.824809 18.2754 1.06971 18.6019C1.45064 19.119 1.85882 19.5815 2.32142 20.0169C2.70236 20.3978 3.13773 20.7516 3.57314 21.1053C5.72278 22.7108 8.30783 23.5543 10.9745 23.5543C13.6412 23.5543 16.2262 22.7107 18.3759 21.1053C18.8112 20.7788 19.2466 20.3978 19.6276 20.0169C20.0629 19.5815 20.4983 19.1189 20.8793 18.6019C21.1514 18.2482 21.3963 17.8944 21.614 17.5135C21.75 17.3502 21.7772 17.1597 21.6955 16.9965Z"/>
    </symbol>

    <symbol id="download" viewBox="0 0 27 27" xmlns="http://www.w3.org/2000/svg">
        <path d="M27 25.3125C27 26.2445 26.2445 27 25.3125 27H1.6875C0.755525 27 0 26.2445 0 25.3125C0 24.3805 0.755525 23.625 1.6875 23.625H25.3125C26.2445 23.625 27 24.3805 27 25.3125ZM12.3068 19.9667C12.6363 20.2962 13.0681 20.461 13.5 20.461C13.9318 20.461 14.3638 20.2962 14.6932 19.9667L20.6721 13.9878C21.3312 13.3288 21.3312 12.2604 20.6721 11.6014C20.0131 10.9423 18.9447 10.9423 18.2856 11.6014L15.1875 14.6995V1.6875C15.1875 0.755525 14.432 0 13.5 0C12.568 0 11.8125 0.755525 11.8125 1.6875V14.6995L8.71436 11.6014C8.05533 10.9423 6.98688 10.9423 6.32786 11.6014C5.66884 12.2604 5.66884 13.3288 6.32786 13.9878L12.3068 19.9667Z" />
    </symbol>


    <symbol id="customers" viewBox="0 0 27 27" xmlns="http://www.w3.org/2000/svg">
        <g clip-path="url(#clip0_179_734)">
            <path d="M17.4278 14.291C17.0603 16.0941 15.4098 17.4551 13.5 17.4551C11.5902 17.4551 9.99249 16.0941 9.62498 14.291H8.04285C8.43081 16.9673 10.718 19.0371 13.5 19.0371C16.282 19.0371 18.6219 16.9673 19.0099 14.291H17.4278Z"/>
            <path d="M20.5919 14.291C20.1926 17.8408 17.1549 20.6191 13.5 20.6191C9.84514 20.6191 6.86016 17.8408 6.4608 14.291H0V15.082C0 15.4227 0.218637 15.7255 0.541529 15.8329L3.79619 16.895C3.93293 17.2828 4.07737 17.6359 4.23188 17.9618L2.73016 20.9791C2.57876 21.2834 2.63899 21.6504 2.87924 21.8906L5.10938 24.1208C5.35117 24.3625 5.7173 24.4197 6.02089 24.2698L9.0382 22.7681C9.3642 22.9226 9.71721 23.0671 10.105 23.2038L11.1671 26.4585C11.2745 26.7814 11.5773 27 11.918 27H15.1348C15.4754 27 15.7782 26.7814 15.8856 26.4585L16.9478 23.2038C17.3356 23.0671 17.6886 22.9226 18.0145 22.7681L21.0318 24.2698C21.3354 24.4204 21.7024 24.3625 21.9434 24.1208L24.1735 21.8906C24.4137 21.6504 24.474 21.2834 24.3226 20.9791L22.8209 17.9618C22.9754 17.6358 23.1198 17.2828 23.2565 16.895L26.4585 15.8329C26.7814 15.7255 27 15.4227 27 15.082V14.291H20.5919Z" />
            <path d="M11.2726 14.291C11.6003 15.2098 12.4701 15.873 13.5 15.873C14.5299 15.873 15.4524 15.2098 15.7801 14.291H11.2726Z" />
            <path d="M13.5 0C11.755 0 10.3359 1.41903 10.3359 3.16406C10.3359 4.9091 11.755 6.32812 13.5 6.32812C15.245 6.32812 16.7168 4.9091 16.7168 3.16406C16.7168 1.41903 15.245 0 13.5 0Z" />
            <path d="M21.4629 0C19.7179 0 18.2988 1.41903 18.2988 3.16406C18.2988 4.9091 19.7179 6.32812 21.4629 6.32812C23.2079 6.32812 24.627 4.9091 24.627 3.16406C24.627 1.41903 23.2079 0 21.4629 0Z" />
            <path d="M5.58984 0C3.84481 0 2.42578 1.41903 2.42578 3.16406C2.42578 4.9091 3.84481 6.32812 5.58984 6.32812C7.33488 6.32812 8.75391 4.9091 8.75391 3.16406C8.75391 1.41903 7.33488 0 5.58984 0Z" />
            <path d="M24.1611 7.0603C23.3938 7.59339 22.466 7.91022 21.4629 7.91022C20.464 7.91022 19.539 7.59677 18.7736 7.06774C18.4267 7.26692 18.0932 7.49088 17.7913 7.76093C19.3296 8.91086 20.3977 10.7068 20.6236 12.7091H27V11.918C27 9.84964 25.8461 8.01084 24.1611 7.0603Z" />
            <path d="M13.5 7.91016C10.7152 7.91016 8.40398 10.0293 8.01929 12.709H19.0334C18.6488 10.0293 16.2848 7.91016 13.5 7.91016Z" />
            <path d="M8.27914 7.06774C7.5137 7.59677 6.58874 7.91022 5.58984 7.91022C4.58678 7.91022 3.65892 7.59339 2.89169 7.0603C1.20662 8.01084 0 9.84964 0 11.918V12.7091H6.42916C6.65508 10.7068 7.72311 8.91086 9.26142 7.76093C8.95946 7.49088 8.62608 7.26692 8.27914 7.06774Z" />
        </g>
        <defs>
        <clipPath id="clip0_179_734">
        <rect width="27" height="27" fill="white"/>
        </clipPath>
        </defs>
    </symbol>

    <symbol id="code" viewBox="0 0 27 21" xmlns="http://www.w3.org/2000/svg">
        <path d="M23.1789 0.622803H3.82113C1.71439 0.622803 0 2.3372 0 4.44446V16.5554C0 18.6627 1.71439 20.3771 3.82113 20.3771H23.1789C25.2856 20.3771 27 18.6627 27 16.5554V4.44446C27 2.3372 25.2856 0.622803 23.1789 0.622803ZM9.79857 6.70255L5.77863 10.7225L9.3535 14.2974C9.66252 14.6064 9.66252 15.1074 9.3535 15.4159C9.045 15.7249 8.54402 15.7249 8.235 15.4159L4.10063 11.2815C3.7916 10.9725 3.7916 10.472 4.10063 10.163L8.67955 5.58405C8.98857 5.27503 9.48955 5.27503 9.79857 5.58405C10.1071 5.89255 10.1071 6.39353 9.79857 6.70255ZM16.3234 4.84155L12.1405 16.6852C11.995 17.0975 11.543 17.3132 11.1312 17.1677C10.7193 17.0221 10.5031 16.5702 10.6487 16.1583L14.8315 4.31474C14.9771 3.90288 15.4285 3.68667 15.8409 3.83222C16.2527 3.97776 16.4689 4.4297 16.3234 4.84155ZM22.8994 10.8369L18.3204 15.4159C18.0114 15.7249 17.5104 15.7249 17.2014 15.4159C16.8929 15.1074 16.8929 14.6064 17.2014 14.2974L21.2214 10.2774L17.6465 6.70255C17.3375 6.39353 17.3375 5.89255 17.6465 5.58405C17.955 5.27503 18.456 5.27503 18.765 5.58405L22.8994 9.71843C23.2084 10.0275 23.2084 10.5279 22.8994 10.8369Z" />
    </symbol>


</svg>