<svg width="114" height="36" viewBox="0 0 114 36" fill="none" xmlns="http://www.w3.org/2000/svg">
<mask id="mask0_1_8412" style="mask-type:alpha" maskUnits="userSpaceOnUse" x="0" y="0" width="114" height="36">
<g clip-path="url(#clip0_1_8412)">
<path d="M59.9613 8.86388C59.9613 10.1352 58.9305 11.1593 57.651 11.1593C56.3714 11.1593 55.3406 10.1352 55.3406 8.86388C55.3406 7.59256 56.3359 6.56845 57.651 6.56845C58.9661 6.60377 59.9613 7.62788 59.9613 8.86388ZM50.4356 13.49C50.4356 13.7019 50.4356 14.0551 50.4356 14.0551C50.4356 14.0551 49.3338 12.6425 46.9879 12.6425C43.1137 12.6425 40.0925 15.5736 40.0925 19.6347C40.0925 23.6605 43.0781 26.6269 46.9879 26.6269C49.3693 26.6269 50.4356 25.1791 50.4356 25.1791V25.7794C50.4356 26.0619 50.6489 26.2738 50.9332 26.2738H53.8123V12.9956C53.8123 12.9956 51.1821 12.9956 50.9332 12.9956C50.6489 12.9956 50.4356 13.2428 50.4356 13.49ZM50.4356 22.0008C49.9025 22.7777 48.8362 23.4487 47.5566 23.4487C45.2818 23.4487 43.5402 22.0361 43.5402 19.6347C43.5402 17.2334 45.2818 15.8208 47.5566 15.8208C48.8006 15.8208 49.938 16.5271 50.4356 17.2687V22.0008ZM55.9449 12.9956H59.357V26.2738H55.9449V12.9956ZM106.914 12.6425C104.568 12.6425 103.466 14.0551 103.466 14.0551V6.60377H100.054V26.2738C100.054 26.2738 102.685 26.2738 102.933 26.2738C103.218 26.2738 103.431 26.0266 103.431 25.7794V25.1791C103.431 25.1791 104.533 26.6269 106.879 26.6269C110.753 26.6269 113.774 23.6605 113.774 19.6347C113.774 15.6089 110.753 12.6425 106.914 12.6425ZM106.345 23.4134C105.03 23.4134 104 22.7424 103.466 21.9655V17.2334C104 16.5271 105.137 15.7855 106.345 15.7855C108.62 15.7855 110.362 17.198 110.362 19.5994C110.362 22.0008 108.62 23.4134 106.345 23.4134ZM98.2771 18.3987V26.3091H94.865V18.7872C94.865 16.5977 94.1541 15.7148 92.2347 15.7148C91.204 15.7148 90.1377 16.2446 89.4623 17.0215V26.2738H86.0502V12.9956H88.7515C89.0358 12.9956 89.2491 13.2428 89.2491 13.49V14.0551C90.2443 13.031 91.5594 12.6425 92.8745 12.6425C94.3673 12.6425 95.6114 13.0663 96.6066 13.9138C97.8151 14.9026 98.2771 16.1739 98.2771 18.3987ZM77.7686 12.6425C75.4227 12.6425 74.3208 14.0551 74.3208 14.0551V6.60377H70.9087V26.2738C70.9087 26.2738 73.5389 26.2738 73.7877 26.2738C74.072 26.2738 74.2853 26.0266 74.2853 25.7794V25.1791C74.2853 25.1791 75.3871 26.6269 77.733 26.6269C81.6072 26.6269 84.6284 23.6605 84.6284 19.6347C84.664 15.6089 81.6428 12.6425 77.7686 12.6425ZM77.1999 23.4134C75.8847 23.4134 74.854 22.7424 74.3208 21.9655V17.2334C74.854 16.5271 75.9914 15.7855 77.1999 15.7855C79.4746 15.7855 81.2163 17.198 81.2163 19.5994C81.2163 22.0008 79.4746 23.4134 77.1999 23.4134ZM67.9586 12.6425C68.9893 12.6425 69.5225 12.8191 69.5225 12.8191V15.962C69.5225 15.962 66.679 15.0086 64.9018 17.0215V26.3091H61.4897V12.9956C61.4897 12.9956 64.1199 12.9956 64.3687 12.9956C64.653 12.9956 64.8663 13.2428 64.8663 13.49V14.0551C65.5061 13.3135 66.8923 12.6425 67.9586 12.6425ZM32.5217 25.0731C32.344 24.6493 32.1663 24.1903 31.9886 23.8018C31.7042 23.1662 31.4199 22.5658 31.1711 22.0008L31.1355 21.9655C28.683 16.6683 26.0528 11.3006 23.2804 6.00342L23.1738 5.79154C22.8895 5.26182 22.6051 4.6968 22.3208 4.13177C21.9653 3.49611 21.6099 2.82514 21.0412 2.18948C19.9038 0.776913 18.2688 0 16.5272 0C14.75 0 13.1506 0.776914 11.9776 2.11886C11.4445 2.75451 11.0535 3.42548 10.6981 4.06114C10.4137 4.62617 10.1294 5.1912 9.84502 5.72091L9.73839 5.93279C7.00154 11.2299 4.33578 16.5977 1.88329 21.8948L1.84774 21.9655C1.59894 22.5305 1.31459 23.1308 1.03024 23.7665C0.852526 24.155 0.674809 24.5787 0.497091 25.0378C0.0350264 26.3444 -0.107147 27.5804 0.0705698 28.8517C0.461548 31.5003 2.23872 33.7251 4.69122 34.7139C5.61535 35.1024 6.57502 35.2789 7.57024 35.2789C7.85459 35.2789 8.21002 35.2436 8.49437 35.2083C9.6673 35.0671 10.8758 34.6786 12.0487 34.0076C13.506 33.1954 14.8922 32.03 16.4561 30.3349C18.02 32.03 19.4418 33.1954 20.8635 34.0076C22.0364 34.6786 23.2449 35.0671 24.4178 35.2083C24.7022 35.2436 25.0576 35.2789 25.342 35.2789C26.3372 35.2789 27.3324 35.1024 28.221 34.7139C30.709 33.7251 32.4507 31.465 32.8416 28.8517C33.126 27.6157 32.9838 26.3797 32.5217 25.0731ZM16.4916 26.9095C14.5723 24.5081 13.3283 22.248 12.9018 20.341C12.724 19.5288 12.6885 18.8225 12.7951 18.1868C12.8662 17.6218 13.0795 17.1274 13.3638 16.7036C14.0391 15.7502 15.1765 15.1498 16.4916 15.1498C17.8068 15.1498 18.9797 15.7148 19.6195 16.7036C19.9038 17.1274 20.1171 17.6218 20.1882 18.1868C20.2948 18.8225 20.2593 19.5641 20.0815 20.341C19.655 22.2127 18.411 24.4728 16.4916 26.9095ZM30.6735 28.5692C30.4247 30.4056 29.1807 31.9947 27.439 32.701C26.586 33.0541 25.6619 33.1601 24.7377 33.0541C23.8491 32.9482 22.9606 32.6657 22.0364 32.136C20.7569 31.4297 19.4773 30.3349 17.9845 28.7105C20.3303 25.85 21.7521 23.2368 22.2852 20.906C22.534 19.8113 22.5696 18.8225 22.4629 17.9043C22.3208 17.0215 22.0009 16.2092 21.5033 15.503C20.4014 13.9138 18.5532 12.9956 16.4916 12.9956C14.4301 12.9956 12.5819 13.9491 11.48 15.503C10.9824 16.2092 10.6625 17.0215 10.5203 17.9043C10.3782 18.8225 10.4137 19.8466 10.6981 20.906C11.2312 23.2368 12.6885 25.8853 14.9988 28.7458C13.5415 30.3703 12.2264 31.465 10.9469 32.1713C10.0227 32.701 9.13415 32.9835 8.24556 33.0895C7.28589 33.1954 6.36176 33.0541 5.54426 32.7363C3.80263 32.03 2.55861 30.4409 2.30981 28.6045C2.20318 27.7217 2.27426 26.8388 2.6297 25.85C2.73633 25.4969 2.91405 25.1437 3.09176 24.72C3.34057 24.1549 3.62491 23.5546 3.90926 22.9543L3.94481 22.8836C6.3973 17.6218 9.02752 12.254 11.7644 7.02754L11.871 6.81565C12.1553 6.28594 12.4397 5.72091 12.724 5.1912C13.0084 4.62617 13.3283 4.09645 13.7193 3.63737C14.4657 2.78983 15.4609 2.33074 16.5627 2.33074C17.6646 2.33074 18.6598 2.78983 19.4062 3.63737C19.7972 4.09645 20.1171 4.62617 20.4014 5.1912C20.6858 5.72091 20.9701 6.28594 21.2545 6.81565L21.3611 7.02754C24.0624 12.2894 26.6926 17.6571 29.1451 22.919V22.9543C29.4295 23.5193 29.6783 24.1549 29.9626 24.72C30.1403 25.1437 30.318 25.4969 30.4247 25.85C30.709 26.7682 30.8157 27.6511 30.6735 28.5692Z" fill="#FF5A5F"/>
</g>
</mask>
<g mask="url(#mask0_1_8412)">
<rect x="-3.62946" y="-7.93774" width="118.184" height="48.5085" fill="#9191D2"/>
</g>
<defs>
<clipPath id="clip0_1_8412">
<rect width="113.775" height="35.2789" fill="white"/>
</clipPath>
</defs>
</svg>
